SplineFontDB: 3.0
FontName: Marvel-Regular
FullName: Marvel
FamilyName: Marvel
Weight: Book
Copyright: Copyright (c) 2011, Carolina Trebol <ca@fromzero.org>, with Reserved Font Name "Marvel".
Version: 1.001
ItalicAngle: 0
UnderlinePosition: -50
UnderlineWidth: 50
Ascent: 800
Descent: 200
sfntRevision: 0x00010042
LayerCount: 2
Layer: 0 1 "Back"  1
Layer: 1 1 "Fore"  0
XUID: [1021 288 713564382 10839323]
FSType: 0
OS2Version: 3
OS2_WeightWidthSlopeOnly: 0
OS2_UseTypoMetrics: 1
CreationTime: 1305456540
ModificationTime: 1311993600
PfmFamily: 17
TTFWeight: 400
TTFWidth: 5
LineGap: 0
VLineGap: 0
Panose: 2 0 0 0 0 0 0 0 0 0
OS2TypoAscent: 151
OS2TypoAOffset: 1
OS2TypoDescent: -59
OS2TypoDOffset: 1
OS2TypoLinegap: 0
OS2WinAscent: 0
OS2WinAOffset: 1
OS2WinDescent: 0
OS2WinDOffset: 1
HheadAscent: 0
HheadAOffset: 1
HheadDescent: 0
HheadDOffset: 1
OS2SubXSize: 700
OS2SubYSize: 650
OS2SubXOff: 0
OS2SubYOff: 140
OS2SupXSize: 700
OS2SupYSize: 650
OS2SupXOff: 0
OS2SupYOff: 477
OS2StrikeYSize: 50
OS2StrikeYPos: 250
OS2Vendor: 'abcd'
OS2CodePages: 00000001.00000000
OS2UnicodeRanges: 800000a7.4800004a.14000000.00000000
Lookup: 258 0 0 "'kern' Horizontal Kerning in Latin lookup 0"  {"'kern' Horizontal Kerning in Latin lookup 0 subtable"  } ['kern' ('DFLT' <'dflt' > 'latn' <'dflt' > ) ]
DEI: 91125
TtTable: prep
PUSHW_1
 511
SCANCTRL
PUSHB_1
 4
SCANTYPE
EndTTInstrs
ShortTable: maxp 16
  1
  0
  195
  126
  4
  75
  4
  2
  0
  1
  1
  0
  64
  0
  2
  1
EndShort
LangName: 1033 "" "" "" "CarolinaTrebol: Marvel: 2011" "" "Version 1.001" "" "Marvel is a trademark of Carolina Trebol." "Carolina Trebol" "Carolina Trebol" "" "fromzero.org" "fromzero.org" "This Font Software is licensed under the SIL Open Font License, Version 1.1. This license is available with a FAQ at: http://scripts.sil.org/OFL" "http://scripts.sil.org/OFL" "" "" "" "Marvel" 
GaspTable: 1 65535 15
Encoding: UnicodeBmp
UnicodeInterp: none
NameList: Adobe Glyph List
DisplaySize: -36
AntiAlias: 1
FitToEm: 1
WinInfo: 34 34 13

StartChar: exclam
Encoding: 33 33 4
Width: 191
Flags: W
LayerCount: 2
Fore
SplineSet
70 141 m 1,0,-1
 70 700 l 1,1,-1
 122 700 l 1,2,-1
 122 141 l 1,3,-1
 70 141 l 1,0,-1
69 1 m 1,4,-1
 69 91 l 1,5,-1
 122 91 l 1,6,-1
 122 1 l 1,7,-1
 69 1 l 1,4,-1
EndSplineSet
EndChar

StartChar: quotedbl
Encoding: 34 34 5
Width: 312
Flags: W
LayerCount: 2
Fore
SplineSet
269 648 m 2,0,1
 269 592 269 592 246 558 c 128,-1,2
 223 524 223 524 185 508 c 1,3,-1
 168 568 l 1,4,5
 185 576 185 576 198 594.5 c 128,-1,6
 211 613 211 613 211 649 c 2,7,-1
 211 700 l 1,8,-1
 269 700 l 1,9,-1
 269 648 l 2,0,1
138 648 m 2,10,11
 138 592 138 592 115 558 c 128,-1,12
 92 524 92 524 54 508 c 1,13,-1
 37 568 l 1,14,15
 54 576 54 576 67 594.5 c 128,-1,16
 80 613 80 613 80 649 c 2,17,-1
 80 700 l 1,18,-1
 138 700 l 1,19,-1
 138 648 l 2,10,11
EndSplineSet
EndChar

StartChar: dollar
Encoding: 36 36 6
Width: 471
Flags: W
LayerCount: 2
Fore
SplineSet
204 764 m 1,0,-1
 259 764 l 1,1,-1
 259 695 l 1,2,3
 270 693 270 693 281 689.5 c 128,-1,4
 292 686 292 686 300 683 c 2,5,-1
 385 648 l 1,6,-1
 366 592 l 1,7,8
 355 597 355 597 338 605 c 128,-1,9
 321 613 321 613 302 621 c 128,-1,10
 283 629 283 629 264.5 634.5 c 128,-1,11
 246 640 246 640 231 640 c 0,12,13
 204 640 204 640 181 629 c 128,-1,14
 158 618 158 618 141.5 599 c 128,-1,15
 125 580 125 580 115.5 555 c 128,-1,16
 106 530 106 530 106 503 c 0,17,18
 106 472 106 472 117.5 448.5 c 128,-1,19
 129 425 129 425 147.5 409.5 c 128,-1,20
 166 394 166 394 190 386.5 c 128,-1,21
 214 379 214 379 240 379 c 0,22,23
 280 379 280 379 315 365.5 c 128,-1,24
 350 352 350 352 376 328 c 128,-1,25
 402 304 402 304 417 270 c 128,-1,26
 432 236 432 236 432 196 c 0,27,28
 432 157 432 157 419 122.5 c 128,-1,29
 406 88 406 88 382.5 62 c 128,-1,30
 359 36 359 36 327.5 19.5 c 128,-1,31
 296 3 296 3 259 0 c 1,32,-1
 259 -73 l 1,33,-1
 204 -73 l 1,34,-1
 204 3 l 1,35,36
 180 11 180 11 155.5 20 c 128,-1,37
 131 29 131 29 110 37.5 c 128,-1,38
 89 46 89 46 72.5 53.5 c 128,-1,39
 56 61 56 61 47 65 c 1,40,-1
 67 120 l 1,41,42
 118 97 118 97 148.5 84.5 c 128,-1,43
 179 72 179 72 196.5 66 c 128,-1,44
 214 60 214 60 223 58.5 c 128,-1,45
 232 57 232 57 242 57 c 0,46,47
 270 57 270 57 294 67.5 c 128,-1,48
 318 78 318 78 336 96 c 128,-1,49
 354 114 354 114 364 139 c 128,-1,50
 374 164 374 164 374 194 c 0,51,52
 374 225 374 225 362 248 c 128,-1,53
 350 271 350 271 331 286.5 c 128,-1,54
 312 302 312 302 288 309.5 c 128,-1,55
 264 317 264 317 240 317 c 0,56,57
 200 317 200 317 165 330.5 c 128,-1,58
 130 344 130 344 103.5 368.5 c 128,-1,59
 77 393 77 393 62 426.5 c 128,-1,60
 47 460 47 460 47 500 c 0,61,62
 47 537 47 537 59 570 c 128,-1,63
 71 603 71 603 92 629 c 128,-1,64
 113 655 113 655 142 672.5 c 128,-1,65
 171 690 171 690 204 696 c 1,66,-1
 204 764 l 1,0,-1
EndSplineSet
EndChar

StartChar: ampersand
Encoding: 38 38 7
Width: 599
Flags: W
LayerCount: 2
Fore
SplineSet
416 129 m 1,0,-1
 217 342 l 1,1,-1
 162 310 l 2,2,3
 127 289 127 289 106.5 260.5 c 128,-1,4
 86 232 86 232 86 192 c 0,5,6
 86 159 86 159 98.5 131.5 c 128,-1,7
 111 104 111 104 132 85 c 128,-1,8
 153 66 153 66 181 55.5 c 128,-1,9
 209 45 209 45 241 45 c 0,10,11
 301 45 301 45 343 67.5 c 128,-1,12
 385 90 385 90 416 129 c 1,0,-1
484 359 m 1,13,-1
 532 359 l 1,14,15
 532 331 532 331 529.5 300 c 128,-1,16
 527 269 527 269 521.5 238.5 c 128,-1,17
 516 208 516 208 506 179.5 c 128,-1,18
 496 151 496 151 481 129 c 1,19,-1
 591 0 l 1,20,-1
 527 0 l 1,21,-1
 454 89 l 1,22,23
 416 44 416 44 362 17.5 c 128,-1,24
 308 -9 308 -9 241 -9 c 0,25,26
 197 -9 197 -9 159 5 c 128,-1,27
 121 19 121 19 92.5 45 c 128,-1,28
 64 71 64 71 47.5 108 c 128,-1,29
 31 145 31 145 31 191 c 0,30,31
 31 245 31 245 56.5 283 c 128,-1,32
 82 321 82 321 128 348 c 2,33,-1
 184 381 l 1,34,-1
 132 439 l 2,35,36
 106 468 106 468 94.5 495 c 128,-1,37
 83 522 83 522 83 556 c 0,38,39
 83 589 83 589 95.5 618 c 128,-1,40
 108 647 108 647 130 668 c 128,-1,41
 152 689 152 689 183 701.5 c 128,-1,42
 214 714 214 714 250 714 c 0,43,44
 285 714 285 714 316 703 c 128,-1,45
 347 692 347 692 370 671.5 c 128,-1,46
 393 651 393 651 406.5 621.5 c 128,-1,47
 420 592 420 592 420 556 c 0,48,49
 420 505 420 505 397 471.5 c 128,-1,50
 374 438 374 438 333 414 c 2,51,-1
 259 370 l 1,52,-1
 447 167 l 1,53,54
 469 206 469 206 476.5 253.5 c 128,-1,55
 484 301 484 301 484 359 c 1,13,-1
369 556 m 0,56,57
 369 607 369 607 335 636.5 c 128,-1,58
 301 666 301 666 250 666 c 0,59,60
 227 666 227 666 206 658 c 128,-1,61
 185 650 185 650 169.5 636 c 128,-1,62
 154 622 154 622 145 601.5 c 128,-1,63
 136 581 136 581 136 556 c 0,64,65
 136 543 136 543 140 531 c 128,-1,66
 144 519 144 519 154 502.5 c 128,-1,67
 164 486 164 486 182 463.5 c 128,-1,68
 200 441 200 441 228 407 c 1,69,-1
 307 456 l 2,70,71
 336 474 336 474 352.5 499 c 128,-1,72
 369 524 369 524 369 556 c 0,56,57
527 0 m 1,73,-1
 454 89 l 1,74,-1
 527 0 l 1,73,-1
EndSplineSet
EndChar

StartChar: quotesingle
Encoding: 39 39 8
Width: 181
Flags: W
LayerCount: 2
Fore
SplineSet
138 648 m 1,0,1
 138 592 138 592 115 558 c 128,-1,2
 92 524 92 524 54 508 c 1,3,-1
 37 568 l 1,4,5
 54 576 54 576 67 594.5 c 128,-1,6
 80 613 80 613 80 649 c 2,7,-1
 80 700 l 1,8,-1
 138 700 l 1,9,-1
 138 648 l 1,10,-1
 138 648 l 1,0,1
EndSplineSet
EndChar

StartChar: parenleft
Encoding: 40 40 9
Width: 231
Flags: W
LayerCount: 2
Fore
SplineSet
61 82 m 2,0,-1
 61 619 l 2,1,2
 61 654 61 654 70 679 c 128,-1,3
 79 704 79 704 95 719.5 c 128,-1,4
 111 735 111 735 132.5 742.5 c 128,-1,5
 154 750 154 750 179 750 c 2,6,-1
 197 750 l 1,7,-1
 197 696 l 1,8,-1
 184 696 l 2,9,10
 155 696 155 696 134.5 680.5 c 128,-1,11
 114 665 114 665 114 624 c 2,12,-1
 114 77 l 2,13,14
 114 36 114 36 134.5 20.5 c 128,-1,15
 155 5 155 5 184 5 c 2,16,-1
 197 5 l 1,17,-1
 197 -49 l 1,18,-1
 179 -49 l 2,19,20
 154 -49 154 -49 132.5 -41.5 c 128,-1,21
 111 -34 111 -34 95 -18.5 c 128,-1,22
 79 -3 79 -3 70 22 c 128,-1,23
 61 47 61 47 61 82 c 2,0,-1
EndSplineSet
EndChar

StartChar: parenright
Encoding: 41 41 10
Width: 231
Flags: W
LayerCount: 2
Fore
SplineSet
169 81 m 1,0,1
 169 46 169 46 160 21 c 128,-1,2
 151 -4 151 -4 135 -19.5 c 128,-1,3
 119 -35 119 -35 97.5 -42.5 c 128,-1,4
 76 -50 76 -50 51 -50 c 2,5,-1
 33 -50 l 1,6,-1
 33 4 l 1,7,-1
 46 4 l 2,8,9
 74 4 74 4 95 19.5 c 128,-1,10
 116 35 116 35 116 76 c 2,11,-1
 117 624 l 2,12,13
 117 665 117 665 96 680.5 c 128,-1,14
 75 696 75 696 47 696 c 2,15,-1
 34 696 l 1,16,-1
 34 750 l 1,17,-1
 52 750 l 2,18,19
 77 750 77 750 98.5 742.5 c 128,-1,20
 120 735 120 735 136 719.5 c 128,-1,21
 152 704 152 704 161 679 c 128,-1,22
 170 654 170 654 170 619 c 2,23,-1
 169 81 l 1,24,-1
 169 81 l 1,0,1
EndSplineSet
EndChar

StartChar: asterisk
Encoding: 42 42 11
Width: 398
Flags: W
LayerCount: 2
Fore
SplineSet
326 224 m 1,0,-1
 217 289 l 1,1,-1
 221 163 l 1,2,-1
 177 163 l 1,3,-1
 180 289 l 1,4,-1
 73 224 l 1,5,-1
 51 262 l 1,6,-1
 161 322 l 1,7,-1
 51 382 l 1,8,-1
 73 419 l 1,9,-1
 180 355 l 1,10,-1
 177 481 l 1,11,-1
 221 481 l 1,12,-1
 217 355 l 1,13,-1
 326 419 l 1,14,-1
 347 382 l 1,15,-1
 237 322 l 1,16,-1
 347 262 l 1,17,-1
 326 224 l 1,0,-1
EndSplineSet
EndChar

StartChar: plus
Encoding: 43 43 12
Width: 429
Flags: W
LayerCount: 2
Fore
SplineSet
384 235 m 1,0,-1
 247 235 l 1,1,-1
 247 98 l 1,2,-1
 182 98 l 1,3,-1
 182 235 l 1,4,-1
 45 235 l 1,5,-1
 45 300 l 1,6,-1
 182 300 l 1,7,-1
 182 437 l 1,8,-1
 247 437 l 1,9,-1
 247 300 l 1,10,-1
 384 300 l 1,11,-1
 384 235 l 1,0,-1
EndSplineSet
EndChar

StartChar: comma
Encoding: 44 44 13
Width: 171
Flags: W
LayerCount: 2
Fore
SplineSet
116 48 m 1,0,1
 116 -8 116 -8 93 -42 c 128,-1,2
 70 -76 70 -76 32 -92 c 1,3,-1
 15 -32 l 1,4,5
 32 -24 32 -24 45 -5.5 c 128,-1,6
 58 13 58 13 58 49 c 2,7,-1
 58 100 l 1,8,-1
 116 100 l 1,9,-1
 116 48 l 1,10,-1
 116 48 l 1,0,1
EndSplineSet
EndChar

StartChar: hyphen
Encoding: 45 45 14
Width: 362
Flags: W
LayerCount: 2
Fore
SplineSet
61 323 m 1,0,-1
 61 387 l 1,1,-1
 301 387 l 1,2,-1
 301 323 l 1,3,-1
 61 323 l 1,0,-1
EndSplineSet
EndChar

StartChar: period
Encoding: 46 46 15
Width: 181
Flags: W
LayerCount: 2
Fore
SplineSet
56 5 m 1,0,-1
 56 93 l 1,1,-1
 125 93 l 1,2,-1
 125 5 l 1,3,-1
 56 5 l 1,0,-1
EndSplineSet
EndChar

StartChar: slash
Encoding: 47 47 16
Width: 258
Flags: W
LayerCount: 2
Fore
SplineSet
150 699 m 1,0,-1
 210 699 l 1,1,-1
 109 1 l 1,2,-1
 49 1 l 1,3,-1
 150 699 l 1,0,-1
EndSplineSet
EndChar

StartChar: zero
Encoding: 48 48 17
Width: 436
Flags: W
LayerCount: 2
Fore
SplineSet
202 44 m 2,0,-1
 234 44 l 2,1,2
 268 44 268 44 292 69.5 c 128,-1,3
 316 95 316 95 316 131 c 2,4,-1
 316 518 l 2,5,6
 316 558 316 558 288 579.5 c 128,-1,7
 260 601 260 601 223 601 c 0,8,9
 202 601 202 601 183.5 597 c 128,-1,10
 165 593 165 593 151 583 c 128,-1,11
 137 573 137 573 128.5 557.5 c 128,-1,12
 120 542 120 542 120 518 c 2,13,-1
 120 131 l 2,14,15
 120 95 120 95 143.5 69.5 c 128,-1,16
 167 44 167 44 202 44 c 2,0,-1
367 518 m 2,17,-1
 367 128 l 2,18,19
 367 99 367 99 356.5 74 c 128,-1,20
 346 49 346 49 328 30.5 c 128,-1,21
 310 12 310 12 286 1.5 c 128,-1,22
 262 -9 262 -9 234 -9 c 2,23,-1
 201 -9 l 2,24,25
 173 -9 173 -9 149 1.5 c 128,-1,26
 125 12 125 12 107 30.5 c 128,-1,27
 89 49 89 49 79 74 c 128,-1,28
 69 99 69 99 69 128 c 2,29,-1
 69 518 l 2,30,31
 69 547 69 547 79.5 572 c 128,-1,32
 90 597 90 597 108 615.5 c 128,-1,33
 126 634 126 634 150 644.5 c 128,-1,34
 174 655 174 655 202 655 c 2,35,-1
 235 655 l 2,36,37
 262 655 262 655 286 644.5 c 128,-1,38
 310 634 310 634 328 615.5 c 128,-1,39
 346 597 346 597 356.5 572 c 128,-1,40
 367 547 367 547 367 518 c 2,17,-1
EndSplineSet
EndChar

StartChar: one
Encoding: 49 49 18
Width: 210
Flags: W
LayerCount: 2
Fore
SplineSet
78 623 m 1,0,-1
 131 650 l 1,1,-1
 131 1 l 1,2,-1
 78 1 l 1,3,-1
 78 623 l 1,0,-1
EndSplineSet
EndChar

StartChar: two
Encoding: 50 50 19
Width: 397
Flags: W
LayerCount: 2
Fore
SplineSet
260 366 m 1,0,1
 277 389 277 389 283 413 c 128,-1,2
 289 437 289 437 290 466 c 1,3,4
 289 493 289 493 280.5 517.5 c 128,-1,5
 272 542 272 542 258 560.5 c 128,-1,6
 244 579 244 579 224 590 c 128,-1,7
 204 601 204 601 179 601 c 0,8,9
 174 601 174 601 167.5 599.5 c 128,-1,10
 161 598 161 598 148 593.5 c 128,-1,11
 135 589 135 589 113 580.5 c 128,-1,12
 91 572 91 572 57 558 c 1,13,-1
 34 610 l 1,14,-1
 110 641 l 2,15,16
 125 647 125 647 145.5 651 c 128,-1,17
 166 655 166 655 181 656 c 1,18,19
 216 656 216 656 246 641 c 128,-1,20
 276 626 276 626 297.5 600.5 c 128,-1,21
 319 575 319 575 331.5 541.5 c 128,-1,22
 344 508 344 508 344 469 c 0,23,24
 344 434 344 434 337.5 405 c 128,-1,25
 331 376 331 376 307 344 c 1,26,27
 280 297 280 297 247.5 246 c 128,-1,28
 215 195 215 195 187 153 c 0,29,30
 154 103 154 103 121 56 c 1,31,-1
 342 56 l 1,32,-1
 342 0 l 1,33,-1
 64 0 l 1,34,-1
 64 65 l 1,35,-1
 260 366 l 1,0,1
EndSplineSet
EndChar

StartChar: three
Encoding: 51 51 20
Width: 413
Flags: W
LayerCount: 2
Fore
SplineSet
46 610 m 1,0,-1
 117 639 l 2,1,2
 132 646 132 646 156 651 c 128,-1,3
 180 656 180 656 194 656 c 0,4,5
 230 655 230 655 259 641 c 128,-1,6
 288 627 288 627 308.5 603 c 128,-1,7
 329 579 329 579 340 546 c 128,-1,8
 351 513 351 513 351 474 c 0,9,10
 351 433 351 433 337 401.5 c 128,-1,11
 323 370 323 370 285 336 c 1,12,13
 308 319 308 319 321 299.5 c 128,-1,14
 334 280 334 280 340.5 259.5 c 128,-1,15
 347 239 347 239 348.5 217.5 c 128,-1,16
 350 196 350 196 350 176 c 0,17,18
 350 137 350 137 337.5 103.5 c 128,-1,19
 325 70 325 70 303.5 45 c 128,-1,20
 282 20 282 20 252 5 c 128,-1,21
 222 -10 222 -10 187 -10 c 1,22,23
 172 -9 172 -9 152 -5 c 128,-1,24
 132 -1 132 -1 116 5 c 2,25,-1
 47 32 l 1,26,-1
 61 86 l 1,27,-1
 143 51 l 2,28,29
 153 47 153 47 164 44 c 128,-1,30
 175 41 175 41 185 41 c 0,31,32
 210 41 210 41 230.5 52.5 c 128,-1,33
 251 64 251 64 266 83.5 c 128,-1,34
 281 103 281 103 290 128 c 128,-1,35
 299 153 299 153 300 180 c 0,36,37
 300 207 300 207 293.5 231 c 128,-1,38
 287 255 287 255 274 273.5 c 128,-1,39
 261 292 261 292 240 303 c 128,-1,40
 219 314 219 314 190 314 c 2,41,-1
 133 314 l 1,42,-1
 133 363 l 1,43,-1
 191 363 l 2,44,45
 250 363 250 363 274.5 396.5 c 128,-1,46
 299 430 299 430 300 483 c 1,47,48
 299 510 299 510 288.5 532 c 128,-1,49
 278 554 278 554 262.5 569.5 c 128,-1,50
 247 585 247 585 228 593.5 c 128,-1,51
 209 602 209 602 191 602 c 0,52,53
 181 602 181 602 166 599.5 c 128,-1,54
 151 597 151 597 141 592 c 2,55,-1
 68 559 l 1,56,-1
 46 610 l 1,0,-1
EndSplineSet
EndChar

StartChar: four
Encoding: 52 52 21
Width: 393
Flags: W
LayerCount: 2
Fore
SplineSet
285 0 m 1,0,-1
 285 195 l 1,1,-1
 32 195 l 1,2,-1
 32 254 l 1,3,-1
 183 650 l 1,4,-1
 238 650 l 1,5,-1
 90 249 l 1,6,-1
 285 249 l 1,7,-1
 285 363 l 1,8,-1
 338 363 l 1,9,-1
 338 0 l 1,10,-1
 285 0 l 1,0,-1
EndSplineSet
EndChar

StartChar: five
Encoding: 53 53 22
Width: 426
Flags: W
LayerCount: 2
Fore
SplineSet
379 195 m 1,0,1
 379 153 379 153 369 116.5 c 128,-1,2
 359 80 359 80 339 52 c 128,-1,3
 319 24 319 24 289 8 c 128,-1,4
 259 -8 259 -8 220 -8 c 0,5,6
 200 -8 200 -8 172.5 -2 c 128,-1,7
 145 4 145 4 120 11 c 128,-1,8
 95 18 95 18 78 24.5 c 128,-1,9
 61 31 61 31 61 31 c 1,10,-1
 79 88 l 1,11,12
 104 77 104 77 129 69 c 0,13,14
 150 62 150 62 174 56.5 c 128,-1,15
 198 51 198 51 218 51 c 0,16,17
 246 51 246 51 265.5 62.5 c 128,-1,18
 285 74 285 74 298 94 c 128,-1,19
 311 114 311 114 317 140 c 128,-1,20
 323 166 323 166 323 195 c 2,21,-1
 323 224 l 2,22,23
 323 253 323 253 317 279 c 128,-1,24
 311 305 311 305 298 324.5 c 128,-1,25
 285 344 285 344 265 355.5 c 128,-1,26
 245 367 245 367 217 367 c 2,27,-1
 63 367 l 1,28,-1
 63 650 l 1,29,-1
 323 650 l 1,30,-1
 323 598 l 1,31,-1
 122 598 l 1,32,-1
 122 421 l 1,33,-1
 218 421 l 2,34,35
 258 421 258 421 288 406 c 128,-1,36
 318 391 318 391 338 364.5 c 128,-1,37
 358 338 358 338 368.5 302 c 128,-1,38
 379 266 379 266 379 224 c 2,39,-1
 379 195 l 1,40,-1
 379 195 l 1,0,1
EndSplineSet
EndChar

StartChar: six
Encoding: 54 54 23
Width: 419
Flags: W
LayerCount: 2
Fore
SplineSet
234 362 m 2,0,-1
 202 362 l 2,1,2
 168 362 168 362 144 336.5 c 128,-1,3
 120 311 120 311 120 275 c 2,4,-1
 120 126 l 2,5,6
 120 83 120 83 149.5 62.5 c 128,-1,7
 179 42 179 42 219 42 c 0,8,9
 238 42 238 42 255.5 46.5 c 128,-1,10
 273 51 273 51 286.5 61.5 c 128,-1,11
 300 72 300 72 308 87.5 c 128,-1,12
 316 103 316 103 316 126 c 2,13,-1
 316 275 l 2,14,15
 316 311 316 311 292 336.5 c 128,-1,16
 268 362 268 362 234 362 c 2,0,-1
234 -7 m 2,17,-1
 201 -7 l 2,18,19
 174 -7 174 -7 150 3.5 c 128,-1,20
 126 14 126 14 108 32.5 c 128,-1,21
 90 51 90 51 79.5 76 c 128,-1,22
 69 101 69 101 69 130 c 2,23,-1
 69 504 l 2,24,25
 69 537 69 537 81 565 c 128,-1,26
 93 593 93 593 114 613.5 c 128,-1,27
 135 634 135 634 163.5 645 c 128,-1,28
 192 656 192 656 224 656 c 0,29,30
 229 656 229 656 244 653 c 128,-1,31
 259 650 259 650 276 646 c 0,32,33
 295 642 295 642 318 636 c 1,34,-1
 304 589 l 1,35,36
 285 594 285 594 268 598 c 0,37,38
 254 601 254 601 241 604 c 128,-1,39
 228 607 228 607 224 607 c 0,40,41
 181 607 181 607 149.5 579 c 128,-1,42
 118 551 118 551 118 504 c 2,43,-1
 118 385 l 1,44,45
 130 395 130 395 147 400.5 c 128,-1,46
 164 406 164 406 181 409 c 128,-1,47
 198 412 198 412 212 412.5 c 128,-1,48
 226 413 226 413 234 413 c 0,49,50
 262 413 262 413 286 402 c 128,-1,51
 310 391 310 391 328 371.5 c 128,-1,52
 346 352 346 352 356.5 326.5 c 128,-1,53
 367 301 367 301 367 272 c 2,54,-1
 367 130 l 2,55,56
 367 101 367 101 356.5 76 c 128,-1,57
 346 51 346 51 328 32.5 c 128,-1,58
 310 14 310 14 286 3.5 c 128,-1,59
 262 -7 262 -7 234 -7 c 2,17,-1
EndSplineSet
EndChar

StartChar: seven
Encoding: 55 55 24
Width: 360
Flags: W
LayerCount: 2
Fore
SplineSet
34 650 m 1,0,-1
 326 650 l 1,1,-1
 326 585 l 1,2,-1
 141 0 l 1,3,-1
 84 0 l 1,4,-1
 271 599 l 1,5,-1
 34 599 l 1,6,-1
 34 650 l 1,0,-1
EndSplineSet
EndChar

StartChar: eight
Encoding: 56 56 25
Width: 433
Flags: W
LayerCount: 2
Fore
SplineSet
201 39 m 2,0,-1
 233 39 l 2,1,2
 268 39 268 39 292 65 c 128,-1,3
 316 91 316 91 316 128 c 2,4,-1
 316 204 l 2,5,6
 316 225 316 225 307.5 241 c 128,-1,7
 299 257 299 257 285 267.5 c 128,-1,8
 271 278 271 278 253 283 c 128,-1,9
 235 288 235 288 215 288 c 0,10,11
 176 288 176 288 147 268 c 128,-1,12
 118 248 118 248 118 204 c 2,13,-1
 118 128 l 2,14,15
 118 91 118 91 142 65 c 128,-1,16
 166 39 166 39 201 39 c 2,0,-1
201 355 m 2,17,-1
 233 355 l 2,18,19
 268 355 268 355 292 381 c 128,-1,20
 316 407 316 407 316 444 c 2,21,-1
 316 522 l 2,22,23
 316 562 316 562 288 584 c 128,-1,24
 260 606 260 606 222 606 c 0,25,26
 201 606 201 606 182.5 601.5 c 128,-1,27
 164 597 164 597 149.5 587.5 c 128,-1,28
 135 578 135 578 126.5 562 c 128,-1,29
 118 546 118 546 118 522 c 2,30,-1
 118 444 l 2,31,32
 118 407 118 407 142 381 c 128,-1,33
 166 355 166 355 201 355 c 2,17,-1
134 323 m 1,34,35
 104 340 104 340 85.5 371.5 c 128,-1,36
 67 403 67 403 67 441 c 2,37,-1
 67 527 l 2,38,39
 67 563 67 563 80 587.5 c 128,-1,40
 93 612 93 612 114.5 627 c 128,-1,41
 136 642 136 642 164.5 648.5 c 128,-1,42
 193 655 193 655 224 655 c 0,43,44
 252 655 252 655 278 646 c 128,-1,45
 304 637 304 637 323.5 620.5 c 128,-1,46
 343 604 343 604 354.5 580.5 c 128,-1,47
 366 557 366 557 366 527 c 2,48,-1
 366 441 l 2,49,50
 366 402 366 402 347 370.5 c 128,-1,51
 328 339 328 339 297 322 c 1,52,53
 328 306 328 306 347 277.5 c 128,-1,54
 366 249 366 249 366 210 c 2,55,-1
 366 125 l 2,56,57
 366 98 366 98 356.5 73.5 c 128,-1,58
 347 49 347 49 330 30.5 c 128,-1,59
 313 12 313 12 290 1.5 c 128,-1,60
 267 -9 267 -9 241 -9 c 2,61,-1
 193 -9 l 2,62,63
 167 -9 167 -9 144 1.5 c 128,-1,64
 121 12 121 12 104 30.5 c 128,-1,65
 87 49 87 49 77 73.5 c 128,-1,66
 67 98 67 98 67 125 c 2,67,-1
 67 210 l 2,68,69
 67 248 67 248 85.5 278 c 128,-1,70
 104 308 104 308 134 323 c 1,34,35
EndSplineSet
EndChar

StartChar: nine
Encoding: 57 57 26
Width: 426
Flags: W
LayerCount: 2
Fore
SplineSet
192 299 m 2,0,-1
 224 299 l 2,1,2
 258 299 258 299 282 324.5 c 128,-1,3
 306 350 306 350 306 386 c 2,4,-1
 306 523 l 2,5,6
 306 563 306 563 278 584.5 c 128,-1,7
 250 606 250 606 213 606 c 0,8,9
 192 606 192 606 173.5 602 c 128,-1,10
 155 598 155 598 141 588 c 128,-1,11
 127 578 127 578 118.5 562.5 c 128,-1,12
 110 547 110 547 110 523 c 2,13,-1
 110 386 l 2,14,15
 110 350 110 350 133.5 324.5 c 128,-1,16
 157 299 157 299 192 299 c 2,0,-1
192 656 m 2,17,-1
 225 656 l 2,18,19
 252 656 252 656 276 645.5 c 128,-1,20
 300 635 300 635 318 616.5 c 128,-1,21
 336 598 336 598 346.5 573 c 128,-1,22
 357 548 357 548 357 519 c 2,23,-1
 357 141 l 2,24,25
 357 108 357 108 344.5 80 c 128,-1,26
 332 52 332 52 311 31.5 c 128,-1,27
 290 11 290 11 262 0 c 128,-1,28
 234 -11 234 -11 202 -11 c 0,29,30
 197 -11 197 -11 174.5 -6 c 128,-1,31
 152 -1 152 -1 126 5 c 0,32,33
 96 12 96 12 60 21 c 1,34,-1
 74 68 l 1,35,36
 107 59 107 59 134 53 c 0,37,38
 157 47 157 47 177.5 42.5 c 128,-1,39
 198 38 198 38 202 38 c 0,40,41
 245 38 245 38 276.5 66 c 128,-1,42
 308 94 308 94 308 141 c 2,43,-1
 308 276 l 1,44,45
 298 267 298 267 282 261.5 c 128,-1,46
 266 256 266 256 249 253 c 128,-1,47
 232 250 232 250 216.5 249 c 128,-1,48
 201 248 201 248 192 248 c 0,49,50
 164 248 164 248 140 259 c 128,-1,51
 116 270 116 270 98 289.5 c 128,-1,52
 80 309 80 309 69.5 334.5 c 128,-1,53
 59 360 59 360 59 389 c 2,54,-1
 59 519 l 2,55,56
 59 548 59 548 69.5 573 c 128,-1,57
 80 598 80 598 98 616.5 c 128,-1,58
 116 635 116 635 140 645.5 c 128,-1,59
 164 656 164 656 192 656 c 2,17,-1
EndSplineSet
EndChar

StartChar: colon
Encoding: 58 58 27
Width: 192
Flags: W
LayerCount: 2
Fore
SplineSet
131 321 m 1,0,-1
 62 321 l 1,1,-1
 62 411 l 1,2,-1
 131 411 l 1,3,-1
 131 321 l 1,0,-1
130 1 m 1,4,-1
 61 1 l 1,5,-1
 61 89 l 1,6,-1
 130 89 l 1,7,-1
 130 1 l 1,4,-1
EndSplineSet
EndChar

StartChar: semicolon
Encoding: 59 59 28
Width: 216
Flags: W
LayerCount: 2
Fore
SplineSet
147 46 m 2,0,1
 147 -10 147 -10 124 -44 c 128,-1,2
 101 -78 101 -78 63 -94 c 1,3,-1
 31 -36 l 1,4,5
 48 -28 48 -28 63 -8.5 c 128,-1,6
 78 11 78 11 78 47 c 2,7,-1
 78 98 l 1,8,-1
 147 98 l 1,9,-1
 147 46 l 2,0,1
78 321 m 1,10,-1
 78 411 l 1,11,-1
 147 411 l 1,12,-1
 147 321 l 1,13,-1
 78 321 l 1,10,-1
EndSplineSet
EndChar

StartChar: less
Encoding: 60 60 29
Width: 491
Flags: W
LayerCount: 2
Fore
SplineSet
419 225 m 1,0,-1
 419 171 l 1,1,-1
 53 260 l 1,2,-1
 53 345 l 1,3,-1
 419 430 l 1,4,-1
 419 375 l 1,5,-1
 253 339 l 2,6,7
 238 335 238 335 215.5 330.5 c 128,-1,8
 193 326 193 326 172 321 c 0,9,10
 147 316 147 316 121 310 c 1,11,-1
 121 290 l 1,12,13
 121 290 121 290 136.5 286.5 c 128,-1,14
 152 283 152 283 173 279 c 128,-1,15
 194 275 194 275 216.5 270 c 128,-1,16
 239 265 239 265 254 262 c 2,17,-1
 419 225 l 1,0,-1
EndSplineSet
EndChar

StartChar: equal
Encoding: 61 61 30
Width: 481
Flags: W
LayerCount: 2
Fore
SplineSet
69 370 m 1,0,-1
 69 434 l 1,1,-1
 412 434 l 1,2,-1
 412 370 l 1,3,-1
 69 370 l 1,0,-1
69 175 m 1,4,-1
 69 239 l 1,5,-1
 412 239 l 1,6,-1
 412 175 l 1,7,-1
 69 175 l 1,4,-1
EndSplineSet
EndChar

StartChar: greater
Encoding: 62 62 31
Width: 490
Flags: W
LayerCount: 2
Fore
SplineSet
237 267 m 2,0,1
 252 270 252 270 274.5 275 c 128,-1,2
 297 280 297 280 318 284 c 128,-1,3
 339 288 339 288 354.5 291.5 c 128,-1,4
 370 295 370 295 370 295 c 1,5,-1
 370 315 l 1,6,7
 344 321 344 321 319 326 c 0,8,9
 298 331 298 331 275.5 335.5 c 128,-1,10
 253 340 253 340 238 344 c 2,11,-1
 72 380 l 1,12,-1
 72 435 l 1,13,-1
 438 350 l 1,14,-1
 438 265 l 1,15,-1
 72 176 l 1,16,-1
 72 230 l 1,17,-1
 237 267 l 2,0,1
EndSplineSet
EndChar

StartChar: question
Encoding: 63 63 32
Width: 425
Flags: W
LayerCount: 2
Fore
SplineSet
196 0 m 1,0,-1
 196 90 l 1,1,-1
 127 90 l 1,2,-1
 127 0 l 1,3,-1
 196 0 l 1,0,-1
386 539 m 0,4,5
 386 507 386 507 376.5 484 c 128,-1,6
 367 461 367 461 356 444 c 2,7,-1
 213 229 l 2,8,9
 203 215 203 215 196 199.5 c 128,-1,10
 189 184 189 184 189 161 c 2,11,-1
 189 140 l 1,12,-1
 131 140 l 1,13,-1
 131 160 l 2,14,15
 131 195 131 195 139.5 218 c 128,-1,16
 148 241 148 241 160 258 c 2,17,-1
 296 462 l 2,18,19
 307 479 307 479 318 499 c 128,-1,20
 329 519 329 519 329 538 c 0,21,22
 329 564 329 564 316 585 c 128,-1,23
 303 606 303 606 283.5 620.5 c 128,-1,24
 264 635 264 635 241.5 643 c 128,-1,25
 219 651 219 651 201 651 c 0,26,27
 189 651 189 651 176.5 648 c 128,-1,28
 164 645 164 645 152 640 c 2,29,-1
 54 603 l 1,30,-1
 35 657 l 1,31,-1
 119 692 l 2,32,33
 136 699 136 699 160 704.5 c 128,-1,34
 184 710 184 710 200 710 c 0,35,36
 236 710 236 710 270 697.5 c 128,-1,37
 304 685 304 685 329.5 662.5 c 128,-1,38
 355 640 355 640 370.5 608.5 c 128,-1,39
 386 577 386 577 386 539 c 0,4,5
EndSplineSet
EndChar

StartChar: at
Encoding: 64 64 33
Width: 863
Flags: W
LayerCount: 2
Fore
SplineSet
823 401 m 0,0,1
 823 354 823 354 811.5 306 c 128,-1,2
 800 258 800 258 777 219 c 128,-1,3
 754 180 754 180 717.5 155 c 128,-1,4
 681 130 681 130 632 130 c 0,5,6
 598 130 598 130 573 152 c 128,-1,7
 548 174 548 174 542 209 c 1,8,9
 533 192 533 192 518.5 177.5 c 128,-1,10
 504 163 504 163 487 153 c 128,-1,11
 470 143 470 143 450.5 137.5 c 128,-1,12
 431 132 431 132 412 132 c 0,13,14
 374 132 374 132 344.5 146.5 c 128,-1,15
 315 161 315 161 295.5 185 c 128,-1,16
 276 209 276 209 266 241 c 128,-1,17
 256 273 256 273 256 308 c 0,18,19
 256 349 256 349 268.5 388 c 128,-1,20
 281 427 281 427 304.5 458 c 128,-1,21
 328 489 328 489 362.5 507.5 c 128,-1,22
 397 526 397 526 442 526 c 0,23,24
 477 526 477 526 507.5 509.5 c 128,-1,25
 538 493 538 493 552 460 c 1,26,-1
 565 517 l 1,27,-1
 602 517 l 1,28,-1
 582 253 l 1,29,-1
 582 244 l 2,30,31
 582 212 582 212 596 192.5 c 128,-1,32
 610 173 610 173 637 173 c 0,33,34
 671 173 671 173 697.5 192.5 c 128,-1,35
 724 212 724 212 741 244.5 c 128,-1,36
 758 277 758 277 767 318 c 128,-1,37
 776 359 776 359 776 401 c 0,38,39
 776 471 776 471 751 526 c 128,-1,40
 726 581 726 581 682.5 619 c 128,-1,41
 639 657 639 657 580 676.5 c 128,-1,42
 521 696 521 696 454 696 c 0,43,44
 371 696 371 696 304.5 668.5 c 128,-1,45
 238 641 238 641 191.5 592 c 128,-1,46
 145 543 145 543 119.5 475 c 128,-1,47
 94 407 94 407 94 326 c 0,48,49
 94 254 94 254 118 190 c 128,-1,50
 142 126 142 126 186 79 c 128,-1,51
 230 32 230 32 291.5 4.5 c 128,-1,52
 353 -23 353 -23 427 -23 c 0,53,54
 493 -23 493 -23 556 -11.5 c 128,-1,55
 619 0 619 0 680 26 c 1,56,-1
 680 -21 l 1,57,58
 615 -49 615 -49 554.5 -59 c 128,-1,59
 494 -69 494 -69 424 -69 c 0,60,61
 339 -69 339 -69 269 -38.5 c 128,-1,62
 199 -8 199 -8 149.5 45.5 c 128,-1,63
 100 99 100 99 72.5 171 c 128,-1,64
 45 243 45 243 45 326 c 0,65,66
 45 418 45 418 74 494.5 c 128,-1,67
 103 571 103 571 156.5 626 c 128,-1,68
 210 681 210 681 285.5 711.5 c 128,-1,69
 361 742 361 742 454 742 c 0,70,71
 531 742 531 742 598 719 c 128,-1,72
 665 696 665 696 715 652 c 128,-1,73
 765 608 765 608 794 544.5 c 128,-1,74
 823 481 823 481 823 401 c 0,0,1
543 350 m 0,75,76
 543 376 543 376 537.5 400 c 128,-1,77
 532 424 532 424 519 442.5 c 128,-1,78
 506 461 506 461 485.5 472 c 128,-1,79
 465 483 465 483 435 483 c 0,80,81
 403 483 403 483 378.5 467 c 128,-1,82
 354 451 354 451 337.5 426 c 128,-1,83
 321 401 321 401 312.5 370 c 128,-1,84
 304 339 304 339 304 308 c 0,85,86
 304 280 304 280 311 255.5 c 128,-1,87
 318 231 318 231 331.5 213 c 128,-1,88
 345 195 345 195 365.5 184.5 c 128,-1,89
 386 174 386 174 414 174 c 0,90,91
 449 174 449 174 473.5 191 c 128,-1,92
 498 208 498 208 513.5 233.5 c 128,-1,93
 529 259 529 259 536 290 c 128,-1,94
 543 321 543 321 543 350 c 0,75,76
EndSplineSet
EndChar

StartChar: A
Encoding: 65 65 34
Width: 459
Flags: W
LayerCount: 2
Fore
SplineSet
319 255 m 1,0,-1
 237 635 l 1,1,-1
 224 635 l 1,2,-1
 141 255 l 1,3,-1
 319 255 l 1,4,-1
 319 255 l 1,0,-1
125 196 m 1,5,-1
 81 1 l 1,6,-1
 27 1 l 1,7,-1
 187 701 l 1,8,-1
 272 701 l 1,9,-1
 432 1 l 1,10,-1
 379 1 l 1,11,-1
 334 196 l 1,12,-1
 125 196 l 1,13,-1
 125 196 l 1,5,-1
EndSplineSet
EndChar

StartChar: B
Encoding: 66 66 35
Width: 473
Flags: W
LayerCount: 2
Fore
SplineSet
134 327 m 1,0,-1
 134 58 l 1,1,-1
 260 58 l 2,2,3
 290 58 290 58 310 68.5 c 128,-1,4
 330 79 330 79 342 97 c 128,-1,5
 354 115 354 115 359 139 c 128,-1,6
 364 163 364 163 364 190 c 0,7,8
 364 218 364 218 359 243 c 128,-1,9
 354 268 354 268 342 286.5 c 128,-1,10
 330 305 330 305 310 316 c 128,-1,11
 290 327 290 327 260 327 c 2,12,-1
 134 327 l 1,0,-1
341 517 m 0,13,14
 340 544 340 544 332 568.5 c 128,-1,15
 324 593 324 593 313 608 c 128,-1,16
 302 623 302 623 291 632 c 0,17,18
 289 634 289 634 286 635 c 0,19,20
 285 635 285 635 285 636 c 1,21,22
 284 636 284 636 283 637 c 0,23,24
 278 640 278 640 267.5 646 c 128,-1,25
 257 652 257 652 232 652 c 0,26,27
 222 652 222 652 199 648 c 128,-1,28
 176 644 176 644 134 626 c 1,29,-1
 134 385 l 1,30,-1
 237 385 l 2,31,32
 267 385 267 385 287 395.5 c 128,-1,33
 307 406 307 406 319 424 c 128,-1,34
 331 442 331 442 336 466 c 128,-1,35
 341 490 341 490 341 517 c 0,13,14
240 710 m 0,36,37
 276 710 276 710 293 701 c 128,-1,38
 310 692 310 692 315 689 c 0,39,40
 338 675 338 675 358 650.5 c 128,-1,41
 378 626 378 626 390 592 c 128,-1,42
 402 558 402 558 402 521 c 0,43,44
 402 476 402 476 391 433 c 128,-1,45
 380 390 380 390 338 355 c 1,46,47
 365 337 365 337 381.5 317.5 c 128,-1,48
 398 298 398 298 407 278 c 128,-1,49
 416 258 416 258 419.5 236 c 128,-1,50
 423 214 423 214 423 190 c 0,51,52
 423 151 423 151 413 116.5 c 128,-1,53
 403 82 403 82 390.5 66 c 128,-1,54
 378 50 378 50 373 44 c 0,55,56
 355 26 355 26 328.5 13 c 128,-1,57
 302 0 302 0 260 0 c 2,58,-1
 78 0 l 1,59,-1
 78 671 l 1,60,61
 116 686 116 686 144.5 694 c 128,-1,62
 173 702 173 702 185 704 c 0,63,64
 214 710 214 710 240 710 c 0,36,37
EndSplineSet
EndChar

StartChar: C
Encoding: 67 67 36
Width: 437
Flags: W
LayerCount: 2
Fore
SplineSet
121 188 m 2,0,1
 121 156 121 156 132 130 c 128,-1,2
 143 104 143 104 161 86 c 128,-1,3
 179 68 179 68 203 57.5 c 128,-1,4
 227 47 227 47 253 46 c 0,5,6
 261 46 261 46 269.5 47.5 c 128,-1,7
 278 49 278 49 291.5 54 c 128,-1,8
 305 59 305 59 326.5 67.5 c 128,-1,9
 348 76 348 76 383 90 c 1,10,-1
 405 33 l 1,11,-1
 324 4 l 2,12,13
 307 -2 307 -2 287 -6 c 128,-1,14
 267 -10 267 -10 253 -10 c 0,15,16
 215 -10 215 -10 181.5 3.5 c 128,-1,17
 148 17 148 17 122.5 42 c 128,-1,18
 97 67 97 67 82 102.5 c 128,-1,19
 67 138 67 138 67 183 c 2,20,-1
 67 193 l 1,21,-1
 67 506 l 2,22,23
 67 548 67 548 81.5 584.5 c 128,-1,24
 96 621 96 621 114 640 c 0,25,26
 132 660 132 660 143 669.5 c 128,-1,27
 154 679 154 679 166 686 c 0,28,29
 176 691 176 691 196 700.5 c 128,-1,30
 216 710 216 710 255 710 c 0,31,32
 269 710 269 710 289 705 c 128,-1,33
 309 700 309 700 325 695 c 1,34,-1
 403 664 l 1,35,-1
 385 612 l 1,36,-1
 298 646 l 2,37,38
 288 650 288 650 277 653 c 128,-1,39
 266 656 266 656 256 656 c 0,40,41
 229 656 229 656 205 643.5 c 128,-1,42
 181 631 181 631 162.5 610 c 128,-1,43
 144 589 144 589 133.5 562 c 128,-1,44
 123 535 123 535 123 506 c 2,45,-1
 121 188 l 2,0,1
EndSplineSet
EndChar

StartChar: D
Encoding: 68 68 37
Width: 477
Flags: W
LayerCount: 2
Fore
SplineSet
73 671 m 1,0,1
 133 696 133 696 173.5 703 c 128,-1,2
 214 710 214 710 228 710 c 0,3,4
 267 710 267 710 300.5 693.5 c 128,-1,5
 334 677 334 677 358 649.5 c 128,-1,6
 382 622 382 622 396 585 c 128,-1,7
 410 548 410 548 410 507 c 2,8,-1
 410 185 l 2,9,10
 410 143 410 143 394 107.5 c 128,-1,11
 378 72 378 72 351.5 45.5 c 128,-1,12
 325 19 325 19 290 4.5 c 128,-1,13
 255 -10 255 -10 217 -10 c 0,14,15
 209 -10 209 -10 198.5 -9 c 128,-1,16
 188 -8 188 -8 171 -4.5 c 128,-1,17
 154 -1 154 -1 130 6.5 c 128,-1,18
 106 14 106 14 73 27 c 1,19,-1
 73 671 l 1,0,1
350 507 m 2,20,21
 350 552 350 552 329.5 585.5 c 128,-1,22
 309 619 309 619 284 635 c 1,23,24
 253 652 253 652 228 652 c 0,25,26
 205 652 205 652 178 642 c 128,-1,27
 151 632 151 632 129 623 c 1,28,-1
 129 73 l 1,29,30
 151 63 151 63 167 58 c 128,-1,31
 183 53 183 53 194 51 c 128,-1,32
 205 49 205 49 212.5 49 c 128,-1,33
 220 49 220 49 225 49 c 0,34,35
 250 49 250 49 273 61 c 128,-1,36
 296 73 296 73 313.5 93 c 128,-1,37
 331 113 331 113 341.5 139 c 128,-1,38
 352 165 352 165 352 194 c 2,39,-1
 350 507 l 2,20,21
EndSplineSet
EndChar

StartChar: E
Encoding: 69 69 38
Width: 406
Flags: W
LayerCount: 2
Fore
SplineSet
361 700 m 1,0,-1
 361 643 l 1,1,-1
 136 643 l 1,2,-1
 136 381 l 1,3,-1
 312 381 l 1,4,-1
 312 323 l 1,5,-1
 136 323 l 1,6,-1
 136 59 l 1,7,-1
 363 59 l 1,8,-1
 363 1 l 1,9,-1
 79 1 l 1,10,-1
 79 700 l 1,11,-1
 361 700 l 1,0,-1
EndSplineSet
EndChar

StartChar: F
Encoding: 70 70 39
Width: 386
Flags: W
LayerCount: 2
Fore
SplineSet
360 700 m 1,0,-1
 360 643 l 1,1,-1
 135 643 l 1,2,-1
 135 380 l 1,3,-1
 311 380 l 1,4,-1
 311 323 l 1,5,-1
 135 323 l 1,6,-1
 135 0 l 1,7,-1
 78 0 l 1,8,-1
 78 700 l 1,9,-1
 360 700 l 1,0,-1
EndSplineSet
EndChar

StartChar: G
Encoding: 71 71 40
Width: 447
Flags: W
LayerCount: 2
Fore
SplineSet
124 509 m 2,0,-1
 124 177 l 2,1,2
 124 149 124 149 134.5 125 c 128,-1,3
 145 101 145 101 163 83 c 128,-1,4
 181 65 181 65 204.5 54.5 c 128,-1,5
 228 44 228 44 253 44 c 0,6,7
 263 44 263 44 281.5 48 c 128,-1,8
 300 52 300 52 338 72 c 1,9,-1
 338 261 l 1,10,-1
 394 261 l 1,11,-1
 394 36 l 1,12,13
 337 6 337 6 300.5 -2 c 128,-1,14
 264 -10 264 -10 250 -10 c 0,15,16
 210 -10 210 -10 176.5 6 c 128,-1,17
 143 22 143 22 118.5 49.5 c 128,-1,18
 94 77 94 77 80.5 113.5 c 128,-1,19
 67 150 67 150 67 191 c 2,20,-1
 67 509 l 1,21,22
 71 603 71 603 121 656.5 c 128,-1,23
 171 710 171 710 252 710 c 1,24,25
 266 709 266 709 286 705 c 128,-1,26
 306 701 306 701 322 695 c 2,27,-1
 385 671 l 1,28,-1
 365 614 l 1,29,-1
 295 641 l 2,30,31
 270 651 270 651 252 651 c 0,32,33
 226 651 226 651 202.5 639.5 c 128,-1,34
 179 628 179 628 161.5 608.5 c 128,-1,35
 144 589 144 589 134 563 c 128,-1,36
 124 537 124 537 124 509 c 2,0,-1
EndSplineSet
EndChar

StartChar: H
Encoding: 72 72 41
Width: 515
Flags: W
LayerCount: 2
Fore
SplineSet
79 700 m 1,0,-1
 135 700 l 1,1,-1
 135 383 l 1,2,-1
 379 383 l 1,3,-1
 379 700 l 1,4,-1
 436 700 l 1,5,-1
 436 1 l 1,6,-1
 379 1 l 1,7,-1
 379 324 l 1,8,-1
 135 324 l 1,9,-1
 135 1 l 1,10,-1
 79 1 l 1,11,-1
 79 700 l 1,12,-1
 79 700 l 1,0,-1
EndSplineSet
EndChar

StartChar: I
Encoding: 73 73 42
Width: 208
Flags: W
LayerCount: 2
Fore
SplineSet
78 700 m 1,0,-1
 130 700 l 1,1,-1
 130 0 l 1,2,-1
 78 0 l 1,3,-1
 78 700 l 1,0,-1
EndSplineSet
EndChar

StartChar: J
Encoding: 74 74 43
Width: 306
Flags: W
LayerCount: 2
Fore
SplineSet
227 136 m 1,0,1
 227 94 227 94 222.5 66 c 128,-1,2
 218 38 218 38 205 21 c 128,-1,3
 192 4 192 4 168.5 -3 c 128,-1,4
 145 -10 145 -10 108 -10 c 0,5,6
 104 -10 104 -10 91.5 -9.5 c 128,-1,7
 79 -9 79 -9 64 -7.5 c 128,-1,8
 49 -6 49 -6 35.5 -4.5 c 128,-1,9
 22 -3 22 -3 15 -1 c 1,10,-1
 26 58 l 1,11,12
 30 57 30 57 42.5 55.5 c 128,-1,13
 55 54 55 54 68 53 c 128,-1,14
 81 52 81 52 92 51 c 128,-1,15
 103 50 103 50 105 50 c 0,16,17
 118 50 118 50 130 52.5 c 128,-1,18
 142 55 142 55 151 63.5 c 128,-1,19
 160 72 160 72 165.5 87.5 c 128,-1,20
 171 103 171 103 171 129 c 2,21,-1
 171 700 l 1,22,-1
 227 700 l 1,23,-1
 227 136 l 1,24,-1
 227 136 l 1,0,1
EndSplineSet
EndChar

StartChar: K
Encoding: 75 75 44
Width: 390
Flags: W
LayerCount: 2
Fore
SplineSet
303 0 m 1,0,-1
 162 319 l 1,1,-1
 134 319 l 1,2,-1
 134 0 l 1,3,-1
 78 0 l 1,4,-1
 78 700 l 1,5,-1
 134 700 l 1,6,-1
 134 379 l 1,7,-1
 161 379 l 1,8,-1
 305 698 l 1,9,-1
 367 698 l 1,10,-1
 214 348 l 1,11,-1
 365 0 l 1,12,-1
 303 0 l 1,0,-1
EndSplineSet
EndChar

StartChar: L
Encoding: 76 76 45
Width: 376
Flags: W
LayerCount: 2
Fore
SplineSet
78 700 m 1,0,-1
 135 700 l 1,1,-1
 135 56 l 1,2,-1
 357 56 l 1,3,-1
 357 0 l 1,4,-1
 78 0 l 1,5,-1
 78 700 l 1,0,-1
EndSplineSet
EndChar

StartChar: M
Encoding: 77 77 46
Width: 608
Flags: W
LayerCount: 2
Fore
SplineSet
311 265 m 1,0,-1
 443 700 l 1,1,-1
 530 700 l 1,2,-1
 530 0 l 1,3,-1
 476 0 l 1,4,-1
 476 582 l 1,5,-1
 463 582 l 1,6,-1
 346 206 l 1,7,-1
 259 206 l 1,8,-1
 143 582 l 1,9,-1
 131 582 l 1,10,-1
 131 0 l 1,11,-1
 78 0 l 1,12,-1
 78 700 l 1,13,-1
 165 700 l 1,14,-1
 295 265 l 1,15,-1
 311 265 l 1,0,-1
EndSplineSet
EndChar

StartChar: N
Encoding: 78 78 47
Width: 554
Flags: W
LayerCount: 2
Fore
SplineSet
476 700 m 1,0,-1
 476 0 l 1,1,-1
 379 0 l 1,2,-1
 141 582 l 1,3,-1
 129 582 l 1,4,-1
 129 0 l 1,5,-1
 78 0 l 1,6,-1
 78 700 l 1,7,-1
 150 700 l 1,8,-1
 411 69 l 1,9,-1
 424 69 l 1,10,-1
 424 700 l 1,11,-1
 476 700 l 1,0,-1
EndSplineSet
EndChar

StartChar: O
Encoding: 79 79 48
Width: 520
Flags: W
LayerCount: 2
Fore
SplineSet
397 172 m 2,0,-1
 397 523 l 2,1,2
 397 563 397 563 381.5 587.5 c 128,-1,3
 366 612 366 612 344.5 625.5 c 128,-1,4
 323 639 323 639 299.5 643.5 c 128,-1,5
 276 648 276 648 260 648 c 256,6,7
 244 648 244 648 220.5 643 c 128,-1,8
 197 638 197 638 175 624.5 c 128,-1,9
 153 611 153 611 137.5 586.5 c 128,-1,10
 122 562 122 562 122 522 c 2,11,-1
 122 171 l 2,12,13
 122 131 122 131 137.5 107.5 c 128,-1,14
 153 84 153 84 175 71.5 c 128,-1,15
 197 59 197 59 220.5 55.5 c 128,-1,16
 244 52 244 52 260 52 c 256,17,18
 276 52 276 52 299.5 56 c 128,-1,19
 323 60 323 60 344.5 72.5 c 128,-1,20
 366 85 366 85 381.5 108.5 c 128,-1,21
 397 132 397 132 397 172 c 2,0,-1
452 172 m 2,22,23
 452 150 452 150 443.5 119 c 128,-1,24
 435 88 435 88 413 59.5 c 128,-1,25
 391 31 391 31 353.5 11 c 128,-1,26
 316 -9 316 -9 259 -9 c 0,27,28
 203 -9 203 -9 166 11 c 128,-1,29
 129 31 129 31 107.5 59.5 c 128,-1,30
 86 88 86 88 77 119 c 128,-1,31
 68 150 68 150 68 172 c 2,32,-1
 68 522 l 2,33,34
 68 544 68 544 76.5 576 c 128,-1,35
 85 608 85 608 107 637.5 c 128,-1,36
 129 667 129 667 166 688 c 128,-1,37
 203 709 203 709 260 709 c 0,38,39
 316 709 316 709 353 688 c 128,-1,40
 390 667 390 667 412 638 c 128,-1,41
 434 609 434 609 443 577 c 128,-1,42
 452 545 452 545 452 523 c 2,43,-1
 452 172 l 2,22,23
EndSplineSet
EndChar

StartChar: P
Encoding: 80 80 49
Width: 493
Flags: W
LayerCount: 2
Fore
SplineSet
243 652 m 0,0,1
 225 652 225 652 206 647.5 c 128,-1,2
 187 643 187 643 170 638 c 0,3,4
 151 632 151 632 132 625 c 1,5,-1
 132 344 l 1,6,-1
 243 344 l 2,7,8
 315 344 315 344 359 384 c 128,-1,9
 403 424 403 424 403 503 c 0,10,11
 403 581 403 581 358.5 616.5 c 128,-1,12
 314 652 314 652 243 652 c 0,0,1
251 710 m 0,13,14
 292 710 292 710 330 695.5 c 128,-1,15
 368 681 368 681 397 654 c 128,-1,16
 426 627 426 627 443 588.5 c 128,-1,17
 460 550 460 550 460 503 c 0,18,19
 460 455 460 455 444 415 c 128,-1,20
 428 375 428 375 400 346.5 c 128,-1,21
 372 318 372 318 333.5 302 c 128,-1,22
 295 286 295 286 250 286 c 2,23,-1
 131 286 l 1,24,-1
 131 0 l 1,25,-1
 78 0 l 1,26,-1
 78 671 l 1,27,28
 104 681 104 681 133 690 c 0,29,30
 158 698 158 698 188.5 704 c 128,-1,31
 219 710 219 710 251 710 c 0,13,14
EndSplineSet
EndChar

StartChar: Q
Encoding: 81 81 50
Width: 520
Flags: W
LayerCount: 2
Fore
SplineSet
395 521 m 2,0,1
 395 561 395 561 380 586 c 128,-1,2
 365 611 365 611 343.5 625.5 c 128,-1,3
 322 640 322 640 299 645.5 c 128,-1,4
 276 651 276 651 260 651 c 256,5,6
 244 651 244 651 221 645.5 c 128,-1,7
 198 640 198 640 176.5 626 c 128,-1,8
 155 612 155 612 139.5 587 c 128,-1,9
 124 562 124 562 124 522 c 2,10,-1
 124 171 l 2,11,12
 124 131 124 131 139.5 107.5 c 128,-1,13
 155 84 155 84 176.5 71.5 c 128,-1,14
 198 59 198 59 221 55.5 c 128,-1,15
 244 52 244 52 260 52 c 256,16,17
 276 52 276 52 299 55.5 c 128,-1,18
 322 59 322 59 343.5 71.5 c 128,-1,19
 365 84 365 84 380 107.5 c 128,-1,20
 395 131 395 131 395 171 c 2,21,-1
 395 521 l 2,0,1
452 171 m 2,22,23
 452 151 452 151 445 124 c 128,-1,24
 438 97 438 97 421.5 71 c 128,-1,25
 405 45 405 45 377 24 c 128,-1,26
 349 3 349 3 306 -5 c 1,27,28
 316 -29 316 -29 340 -40 c 1,29,-1
 323 -101 l 1,30,31
 294 -89 294 -89 273 -66.5 c 128,-1,32
 252 -44 252 -44 243 -9 c 1,33,34
 192 -6 192 -6 158.5 14.5 c 128,-1,35
 125 35 125 35 104.5 63 c 128,-1,36
 84 91 84 91 76 121 c 128,-1,37
 68 151 68 151 68 172 c 2,38,-1
 68 521 l 2,39,40
 68 543 68 543 76.5 575 c 128,-1,41
 85 607 85 607 107 637 c 128,-1,42
 129 667 129 667 166 688 c 128,-1,43
 203 709 203 709 260 709 c 0,44,45
 316 709 316 709 353 688 c 128,-1,46
 390 667 390 667 412 637 c 128,-1,47
 434 607 434 607 443 575 c 128,-1,48
 452 543 452 543 452 521 c 2,49,-1
 452 171 l 2,22,23
EndSplineSet
EndChar

StartChar: R
Encoding: 82 82 51
Width: 503
Flags: W
LayerCount: 2
Fore
SplineSet
243 652 m 0,0,1
 225 652 225 652 206 648 c 128,-1,2
 187 644 187 644 170 639 c 0,3,4
 151 633 151 633 132 626 c 1,5,-1
 132 345 l 1,6,-1
 243 345 l 2,7,8
 315 345 315 345 359 388 c 128,-1,9
 403 431 403 431 403 510 c 0,10,11
 403 549 403 549 391 576 c 128,-1,12
 379 603 379 603 358 620 c 128,-1,13
 337 637 337 637 307.5 644.5 c 128,-1,14
 278 652 278 652 243 652 c 0,0,1
345 305 m 1,15,-1
 469 0 l 1,16,-1
 413 0 l 1,17,-1
 289 290 l 1,18,19
 271 287 271 287 250 287 c 2,20,-1
 131 287 l 1,21,-1
 131 0 l 1,22,-1
 78 0 l 1,23,-1
 78 671 l 1,24,25
 105 681 105 681 134 690 c 0,26,27
 159 698 159 698 189.5 704 c 128,-1,28
 220 710 220 710 251 710 c 0,29,30
 292 710 292 710 330 696.5 c 128,-1,31
 368 683 368 683 397 657.5 c 128,-1,32
 426 632 426 632 443 595 c 128,-1,33
 460 558 460 558 460 510 c 0,34,35
 460 476 460 476 452 443.5 c 128,-1,36
 444 411 444 411 429 384 c 128,-1,37
 414 357 414 357 392.5 336.5 c 128,-1,38
 371 316 371 316 345 305 c 1,15,-1
EndSplineSet
EndChar

StartChar: S
Encoding: 83 83 52
Width: 467
Flags: W
LayerCount: 2
Fore
SplineSet
440 205 m 0,0,1
 440 163 440 163 425.5 126 c 128,-1,2
 411 89 411 89 385.5 61.5 c 128,-1,3
 360 34 360 34 325 17.5 c 128,-1,4
 290 1 290 1 250 1 c 0,5,6
 211 1 211 1 174 11 c 128,-1,7
 137 21 137 21 108 33 c 0,8,9
 74 47 74 47 43 66 c 1,10,-1
 63 121 l 1,11,12
 97 103 97 103 130 90 c 0,13,14
 159 79 159 79 191 69.5 c 128,-1,15
 223 60 223 60 249 60 c 0,16,17
 277 60 277 60 301.5 71 c 128,-1,18
 326 82 326 82 344 101.5 c 128,-1,19
 362 121 362 121 372 147 c 128,-1,20
 382 173 382 173 382 203 c 0,21,22
 382 234 382 234 368 254.5 c 128,-1,23
 354 275 354 275 332.5 288.5 c 128,-1,24
 311 302 311 302 285 309.5 c 128,-1,25
 259 317 259 317 234 321 c 0,26,27
 197 327 197 327 164.5 342 c 128,-1,28
 132 357 132 357 107.5 381 c 128,-1,29
 83 405 83 405 69 437 c 128,-1,30
 55 469 55 469 55 509 c 0,31,32
 55 550 55 550 69.5 586.5 c 128,-1,33
 84 623 84 623 109.5 650.5 c 128,-1,34
 135 678 135 678 169 694 c 128,-1,35
 203 710 203 710 241 710 c 0,36,37
 265 710 265 710 290.5 704.5 c 128,-1,38
 316 699 316 699 338 693 c 0,39,40
 363 685 363 685 387 676 c 1,41,-1
 368 620 l 1,42,43
 346 629 346 629 323 636 c 0,44,45
 303 642 303 642 281 647 c 128,-1,46
 259 652 259 652 239 652 c 0,47,48
 212 652 212 652 188.5 640.5 c 128,-1,49
 165 629 165 629 148 609.5 c 128,-1,50
 131 590 131 590 121 564.5 c 128,-1,51
 111 539 111 539 111 512 c 0,52,53
 111 481 111 481 123.5 457.5 c 128,-1,54
 136 434 136 434 155.5 418 c 128,-1,55
 175 402 175 402 199 392.5 c 128,-1,56
 223 383 223 383 245 379 c 0,57,58
 286 372 286 372 321.5 359 c 128,-1,59
 357 346 357 346 383.5 325.5 c 128,-1,60
 410 305 410 305 425 275 c 128,-1,61
 440 245 440 245 440 205 c 0,0,1
EndSplineSet
EndChar

StartChar: T
Encoding: 84 84 53
Width: 418
Flags: W
LayerCount: 2
Fore
SplineSet
399 700 m 1,0,-1
 399 646 l 1,1,-1
 239 646 l 1,2,-1
 239 0 l 1,3,-1
 185 0 l 1,4,-1
 185 646 l 1,5,-1
 19 646 l 1,6,-1
 19 700 l 1,7,-1
 399 700 l 1,8,-1
 399 700 l 1,0,-1
EndSplineSet
EndChar

StartChar: U
Encoding: 85 85 54
Width: 534
Flags: W
LayerCount: 2
Fore
SplineSet
267 43 m 0,0,1
 285 43 285 43 309 48.5 c 128,-1,2
 333 54 333 54 354.5 68.5 c 128,-1,3
 376 83 376 83 390.5 108 c 128,-1,4
 405 133 405 133 405 173 c 2,5,-1
 405 701 l 1,6,-1
 457 701 l 1,7,-1
 457 173 l 2,8,9
 457 144 457 144 448 112.5 c 128,-1,10
 439 81 439 81 417.5 54.5 c 128,-1,11
 396 28 396 28 359 10.5 c 128,-1,12
 322 -7 322 -7 267 -7 c 256,13,14
 212 -7 212 -7 175.5 10.5 c 128,-1,15
 139 28 139 28 117 54.5 c 128,-1,16
 95 81 95 81 86 112.5 c 128,-1,17
 77 144 77 144 77 173 c 2,18,-1
 77 701 l 1,19,-1
 129 701 l 1,20,-1
 129 173 l 2,21,22
 129 133 129 133 143 108 c 128,-1,23
 157 83 157 83 177.5 68.5 c 128,-1,24
 198 54 198 54 222 48.5 c 128,-1,25
 246 43 246 43 267 43 c 0,0,1
EndSplineSet
EndChar

StartChar: V
Encoding: 86 86 55
Width: 456
Flags: W
LayerCount: 2
Fore
SplineSet
375 700 m 1,0,-1
 431 700 l 1,1,-1
 269 0 l 1,2,-1
 184 0 l 1,3,-1
 27 700 l 1,4,-1
 82 700 l 1,5,-1
 221 66 l 1,6,-1
 234 66 l 1,7,8
 245 112 245 112 256 165 c 0,9,10
 266 210 266 210 278.5 266.5 c 128,-1,11
 291 323 291 323 305 383 c 0,12,13
 336 522 336 522 375 700 c 1,0,-1
EndSplineSet
EndChar

StartChar: W
Encoding: 87 87 56
Width: 609
Flags: W
LayerCount: 2
Fore
SplineSet
301 363 m 1,0,-1
 222 1 l 1,1,-1
 136 1 l 1,2,-1
 34 700 l 1,3,-1
 86 700 l 1,4,-1
 178 65 l 1,5,-1
 186 65 l 1,6,-1
 267 427 l 1,7,-1
 343 427 l 1,8,-1
 423 65 l 1,9,-1
 431 65 l 1,10,-1
 523 700 l 1,11,-1
 575 700 l 1,12,-1
 473 1 l 1,13,-1
 387 1 l 1,14,-1
 309 363 l 1,15,-1
 301 363 l 1,0,-1
EndSplineSet
EndChar

StartChar: X
Encoding: 88 88 57
Width: 452
Flags: W
LayerCount: 2
Fore
SplineSet
214 318 m 1,0,-1
 81 0 l 1,1,-1
 25 0 l 1,2,-1
 171 347 l 1,3,-1
 25 700 l 1,4,-1
 81 700 l 1,5,-1
 218 378 l 1,6,-1
 235 378 l 1,7,-1
 372 700 l 1,8,-1
 428 700 l 1,9,-1
 282 347 l 1,10,-1
 427 0 l 1,11,-1
 370 0 l 1,12,-1
 238 318 l 1,13,-1
 214 318 l 1,0,-1
EndSplineSet
EndChar

StartChar: Y
Encoding: 89 89 58
Width: 433
Flags: W
LayerCount: 2
Fore
SplineSet
260 318 m 1,0,-1
 246 318 l 1,1,-1
 246 0 l 1,2,-1
 186 0 l 1,3,-1
 186 318 l 1,4,-1
 174 318 l 1,5,-1
 15 700 l 1,6,-1
 71 700 l 1,7,-1
 208 378 l 1,8,-1
 225 378 l 1,9,-1
 362 700 l 1,10,-1
 418 700 l 1,11,-1
 260 318 l 1,0,-1
EndSplineSet
EndChar

StartChar: Z
Encoding: 90 90 59
Width: 453
Flags: W
LayerCount: 2
Fore
SplineSet
332 627 m 1,0,-1
 332 641 l 1,1,-1
 56 641 l 1,2,-1
 56 700 l 1,3,-1
 406 700 l 1,4,-1
 406 642 l 1,5,-1
 107 75 l 1,6,-1
 107 59 l 1,7,-1
 422 59 l 1,8,-1
 422 0 l 1,9,-1
 33 0 l 1,10,-1
 33 66 l 1,11,-1
 332 627 l 1,0,-1
EndSplineSet
EndChar

StartChar: bracketleft
Encoding: 91 91 60
Width: 237
Flags: W
LayerCount: 2
Fore
SplineSet
67 -84 m 1,0,-1
 67 777 l 1,1,-1
 206 777 l 1,2,-1
 206 728 l 1,3,-1
 117 728 l 1,4,-1
 117 -35 l 1,5,-1
 206 -35 l 1,6,-1
 206 -84 l 1,7,-1
 67 -84 l 1,0,-1
EndSplineSet
EndChar

StartChar: backslash
Encoding: 92 92 61
Width: 383
Flags: W
LayerCount: 2
Fore
SplineSet
300 -57 m 1,0,-1
 30 768 l 1,1,-1
 84 768 l 1,2,-1
 353 -57 l 1,3,-1
 300 -57 l 1,0,-1
EndSplineSet
EndChar

StartChar: bracketright
Encoding: 93 93 62
Width: 237
Flags: W
LayerCount: 2
Fore
SplineSet
31 -85 m 1,0,-1
 31 -36 l 1,1,-1
 120 -36 l 1,2,-1
 120 727 l 1,3,-1
 31 727 l 1,4,-1
 31 776 l 1,5,-1
 170 776 l 1,6,-1
 170 -85 l 1,7,-1
 31 -85 l 1,0,-1
EndSplineSet
EndChar

StartChar: grave
Encoding: 96 96 64
Width: 364
Flags: W
LayerCount: 2
Fore
SplineSet
206 589 m 1,0,-1
 100 736 l 1,1,-1
 161 736 l 1,2,-1
 258 589 l 1,3,-1
 206 589 l 1,0,-1
EndSplineSet
EndChar

StartChar: a
Encoding: 97 97 65
Width: 403
Flags: W
LayerCount: 2
Fore
SplineSet
294 243 m 2,0,1
 294 244 294 244 285 249.5 c 128,-1,2
 276 255 276 255 260.5 261.5 c 128,-1,3
 245 268 245 268 224 273.5 c 128,-1,4
 203 279 203 279 180 279 c 0,5,6
 163 279 163 279 147.5 272 c 128,-1,7
 132 265 132 265 121 253 c 128,-1,8
 110 241 110 241 103.5 225.5 c 128,-1,9
 97 210 97 210 97 192 c 2,10,-1
 97 129 l 2,11,12
 97 111 97 111 103.5 95.5 c 128,-1,13
 110 80 110 80 121 68.5 c 128,-1,14
 132 57 132 57 147 50 c 128,-1,15
 162 43 162 43 179 43 c 0,16,17
 194 43 194 43 213.5 48.5 c 128,-1,18
 233 54 233 54 251 61 c 0,19,20
 272 69 272 69 294 79 c 1,21,-1
 294 243 l 2,0,1
345 49 m 1,22,-1
 364 31 l 1,23,-1
 328 -5 l 1,24,-1
 301 22 l 1,25,26
 269 4 269 4 234.5 -3 c 128,-1,27
 200 -10 200 -10 180 -10 c 0,28,29
 152 -10 152 -10 127.5 1.5 c 128,-1,30
 103 13 103 13 85 32.5 c 128,-1,31
 67 52 67 52 57 78 c 128,-1,32
 47 104 47 104 47 133 c 2,33,-1
 47 189 l 2,34,35
 47 218 47 218 57 243.5 c 128,-1,36
 67 269 67 269 85 288 c 128,-1,37
 103 307 103 307 127.5 318 c 128,-1,38
 152 329 152 329 180 329 c 0,39,40
 187 329 187 329 201.5 328 c 128,-1,41
 216 327 216 327 232.5 324 c 128,-1,42
 249 321 249 321 266 315.5 c 128,-1,43
 283 310 283 310 295 301 c 1,44,-1
 295 335 l 2,45,46
 295 358 295 358 286.5 380.5 c 128,-1,47
 278 403 278 403 264 421 c 128,-1,48
 250 439 250 439 231 450 c 128,-1,49
 212 461 212 461 190 461 c 0,50,51
 182 461 182 461 161.5 456 c 128,-1,52
 141 451 141 451 119 446 c 0,53,54
 93 440 93 440 63 432 c 1,55,-1
 49 479 l 1,56,57
 82 487 82 487 110 494 c 0,58,59
 134 500 134 500 157 505 c 128,-1,60
 180 510 180 510 190 510 c 0,61,62
 222 510 222 510 250 495 c 128,-1,63
 278 480 278 480 299 455.5 c 128,-1,64
 320 431 320 431 332 399.5 c 128,-1,65
 344 368 344 368 344 335 c 2,66,-1
 345 49 l 1,22,-1
EndSplineSet
EndChar

StartChar: b
Encoding: 98 98 66
Width: 418
Flags: W
LayerCount: 2
Fore
SplineSet
115 79 m 1,0,1
 118 70 118 70 133 63.5 c 128,-1,2
 148 57 148 57 166.5 52.5 c 128,-1,3
 185 48 185 48 203 45.5 c 128,-1,4
 221 43 221 43 230 43 c 0,5,6
 247 43 247 43 262 50 c 128,-1,7
 277 57 277 57 288 68.5 c 128,-1,8
 299 80 299 80 305.5 95.5 c 128,-1,9
 312 111 312 111 312 129 c 2,10,-1
 312 372 l 2,11,12
 312 408 312 408 288 433.5 c 128,-1,13
 264 459 264 459 229 459 c 0,14,15
 220 459 220 459 205.5 457 c 128,-1,16
 191 455 191 455 175 450.5 c 128,-1,17
 159 446 159 446 143 439.5 c 128,-1,18
 127 433 127 433 115 424 c 1,19,-1
 115 79 l 1,0,1
114 482 m 1,20,21
 154 503 154 503 183 506.5 c 128,-1,22
 212 510 212 510 229 510 c 0,23,24
 257 510 257 510 281 499 c 128,-1,25
 305 488 305 488 323 468.5 c 128,-1,26
 341 449 341 449 351.5 423.5 c 128,-1,27
 362 398 362 398 362 369 c 2,28,-1
 362 133 l 2,29,30
 362 104 362 104 351.5 78 c 128,-1,31
 341 52 341 52 323 33 c 128,-1,32
 305 14 305 14 281 3 c 128,-1,33
 257 -8 257 -8 229 -8 c 0,34,35
 207 -8 207 -8 173.5 -1.5 c 128,-1,36
 140 5 140 5 107 23 c 1,37,-1
 80 -3 l 1,38,-1
 45 32 l 1,39,-1
 64 52 l 1,40,-1
 64 700 l 1,41,-1
 114 700 l 1,42,-1
 114 482 l 1,20,21
EndSplineSet
EndChar

StartChar: c
Encoding: 99 99 67
Width: 345
Flags: W
LayerCount: 2
Fore
SplineSet
105 148 m 2,0,1
 105 124 105 124 113.5 104.5 c 128,-1,2
 122 85 122 85 137 71 c 128,-1,3
 152 57 152 57 171.5 49.5 c 128,-1,4
 191 42 191 42 213 42 c 0,5,6
 223 42 223 42 238 44.5 c 128,-1,7
 253 47 253 47 267 50 c 0,8,9
 284 54 284 54 302 59 c 1,10,-1
 318 13 l 1,11,12
 298 6 298 6 280 2 c 0,13,14
 264 -2 264 -2 245.5 -5 c 128,-1,15
 227 -8 227 -8 213 -8 c 0,16,17
 180 -8 180 -8 151.5 3.5 c 128,-1,18
 123 15 123 15 101.5 36 c 128,-1,19
 80 57 80 57 67.5 85.5 c 128,-1,20
 55 114 55 114 55 148 c 2,21,-1
 55 357 l 2,22,23
 55 391 55 391 67.5 419.5 c 128,-1,24
 80 448 80 448 101 468 c 128,-1,25
 122 488 122 488 150.5 499.5 c 128,-1,26
 179 511 179 511 212 511 c 0,27,28
 228 511 228 511 245.5 507 c 128,-1,29
 263 503 263 503 278 498 c 0,30,31
 296 493 296 493 313 486 c 1,32,-1
 301 443 l 1,33,34
 286 448 286 448 270 452 c 0,35,36
 256 456 256 456 241 459 c 128,-1,37
 226 462 226 462 212 462 c 0,38,39
 168 462 168 462 136.5 433.5 c 128,-1,40
 105 405 105 405 105 357 c 2,41,-1
 105 148 l 2,0,1
EndSplineSet
EndChar

StartChar: d
Encoding: 100 100 68
Width: 419
Flags: W
LayerCount: 2
Fore
SplineSet
303 78 m 1,0,-1
 303 423 l 1,1,2
 268 446 268 446 237 452 c 128,-1,3
 206 458 206 458 189 458 c 0,4,5
 154 458 154 458 130 432.5 c 128,-1,6
 106 407 106 407 106 371 c 2,7,-1
 106 128 l 2,8,9
 106 110 106 110 112.5 94.5 c 128,-1,10
 119 79 119 79 130 67.5 c 128,-1,11
 141 56 141 56 156 49 c 128,-1,12
 171 42 171 42 188 42 c 0,13,14
 197 42 197 42 215 44.5 c 128,-1,15
 233 47 233 47 251.5 51.5 c 128,-1,16
 270 56 270 56 285 62.5 c 128,-1,17
 300 69 300 69 303 78 c 1,0,-1
304 481 m 1,18,-1
 304 699 l 1,19,-1
 354 699 l 1,20,-1
 354 48 l 1,21,-1
 376 26 l 1,22,-1
 340 -9 l 1,23,-1
 310 21 l 1,24,25
 278 3 278 3 244 -3 c 128,-1,26
 210 -9 210 -9 189 -9 c 0,27,28
 161 -9 161 -9 137 2 c 128,-1,29
 113 13 113 13 95 32 c 128,-1,30
 77 51 77 51 66.5 77 c 128,-1,31
 56 103 56 103 56 132 c 2,32,-1
 56 368 l 2,33,34
 56 397 56 397 66.5 422.5 c 128,-1,35
 77 448 77 448 95 467.5 c 128,-1,36
 113 487 113 487 137 498 c 128,-1,37
 161 509 161 509 189 509 c 0,38,39
 206 509 206 509 235 505.5 c 128,-1,40
 264 502 264 502 304 481 c 1,18,-1
EndSplineSet
EndChar

StartChar: e
Encoding: 101 101 69
Width: 407
Flags: W
LayerCount: 2
Fore
SplineSet
225 241 m 1,0,-1
 227 241 l 2,1,2
 245 241 245 241 260 248.5 c 128,-1,3
 275 256 275 256 286 268.5 c 128,-1,4
 297 281 297 281 303.5 297 c 128,-1,5
 310 313 310 313 310 331 c 2,6,-1
 310 373 l 2,7,8
 310 397 310 397 301 413.5 c 128,-1,9
 292 430 292 430 277.5 440 c 128,-1,10
 263 450 263 450 243.5 454.5 c 128,-1,11
 224 459 224 459 203 459 c 0,12,13
 184 459 184 459 166.5 453 c 128,-1,14
 149 447 149 447 136 436 c 128,-1,15
 123 425 123 425 115 409 c 128,-1,16
 107 393 107 393 107 373 c 2,17,-1
 107 242 l 1,18,-1
 225 241 l 1,0,-1
55 368 m 2,19,20
 55 398 55 398 65.5 424 c 128,-1,21
 76 450 76 450 94.5 469 c 128,-1,22
 113 488 113 488 137.5 499 c 128,-1,23
 162 510 162 510 191 510 c 2,24,-1
 225 510 l 2,25,26
 253 510 253 510 278 499 c 128,-1,27
 303 488 303 488 322 469 c 128,-1,28
 341 450 341 450 351.5 424 c 128,-1,29
 362 398 362 398 362 368 c 2,30,-1
 362 335 l 2,31,32
 362 293 362 293 347 264.5 c 128,-1,33
 332 236 332 236 306 218 c 128,-1,34
 280 200 280 200 245.5 192.5 c 128,-1,35
 211 185 211 185 172 185 c 0,36,37
 156 185 156 185 140 186 c 128,-1,38
 124 187 124 187 107 189 c 1,39,-1
 107 129 l 1,40,41
 114 89 114 89 144.5 65.5 c 128,-1,42
 175 42 175 42 214 42 c 0,43,44
 218 42 218 42 239.5 46.5 c 128,-1,45
 261 51 261 51 285 56 c 0,46,47
 313 62 313 62 347 70 c 1,48,-1
 359 17 l 1,49,50
 322 9 322 9 292 4 c 0,51,52
 266 -1 266 -1 242.5 -5 c 128,-1,53
 219 -9 219 -9 214 -9 c 0,54,55
 182 -9 182 -9 153 2.5 c 128,-1,56
 124 14 124 14 102 35 c 128,-1,57
 80 56 80 56 67.5 84.5 c 128,-1,58
 55 113 55 113 55 147 c 2,59,-1
 55 368 l 2,19,20
EndSplineSet
EndChar

StartChar: f
Encoding: 102 102 70
Width: 285
Flags: W
LayerCount: 2
Fore
SplineSet
166 0 m 1,0,-1
 113 0 l 1,1,-1
 113 451 l 1,2,-1
 25 451 l 1,3,-1
 25 500 l 1,4,-1
 114 500 l 1,5,-1
 114 578 l 2,6,7
 114 613 114 613 123 638 c 128,-1,8
 132 663 132 663 147.5 678.5 c 128,-1,9
 163 694 163 694 184.5 701.5 c 128,-1,10
 206 709 206 709 231 709 c 2,11,-1
 249 709 l 1,12,-1
 249 655 l 1,13,-1
 236 655 l 2,14,15
 208 655 208 655 186.5 640 c 128,-1,16
 165 625 165 625 165 585 c 2,17,-1
 165 500 l 1,18,-1
 261 500 l 1,19,-1
 261 451 l 1,20,-1
 166 451 l 1,21,-1
 166 0 l 1,0,-1
EndSplineSet
EndChar

StartChar: g
Encoding: 103 103 71
Width: 419
Flags: W
LayerCount: 2
Fore
SplineSet
303 423 m 1,0,1
 300 432 300 432 285 438.5 c 128,-1,2
 270 445 270 445 251.5 449.5 c 128,-1,3
 233 454 233 454 215 456.5 c 128,-1,4
 197 459 197 459 188 459 c 0,5,6
 171 459 171 459 156 452 c 128,-1,7
 141 445 141 445 130 433.5 c 128,-1,8
 119 422 119 422 112.5 406.5 c 128,-1,9
 106 391 106 391 106 373 c 2,10,-1
 106 129 l 2,11,12
 106 93 106 93 130 67.5 c 128,-1,13
 154 42 154 42 189 42 c 0,14,15
 198 42 198 42 213.5 44.5 c 128,-1,16
 229 47 229 47 246.5 51.5 c 128,-1,17
 264 56 264 56 279.5 62.5 c 128,-1,18
 295 69 295 69 303 77 c 1,19,-1
 303 423 l 1,0,1
354 -117 m 2,20,21
 354 -154 354 -154 341.5 -181 c 128,-1,22
 329 -208 329 -208 308 -225 c 128,-1,23
 287 -242 287 -242 258.5 -250.5 c 128,-1,24
 230 -259 230 -259 198 -259 c 0,25,26
 183 -259 183 -259 159 -254 c 128,-1,27
 135 -249 135 -249 112 -243 c 0,28,29
 85 -236 85 -236 56 -227 c 1,30,-1
 70 -180 l 1,31,32
 97 -189 97 -189 123 -196 c 0,33,34
 144 -202 144 -202 165.5 -206.5 c 128,-1,35
 187 -211 187 -211 198 -211 c 0,36,37
 241 -211 241 -211 272.5 -188 c 128,-1,38
 304 -165 304 -165 304 -118 c 2,39,-1
 304 16 l 1,40,41
 269 -2 269 -2 243 -5.5 c 128,-1,42
 217 -9 217 -9 200 -9 c 2,43,-1
 189 -9 l 2,44,45
 161 -9 161 -9 137 2 c 128,-1,46
 113 13 113 13 95 32.5 c 128,-1,47
 77 52 77 52 66.5 77.5 c 128,-1,48
 56 103 56 103 56 132 c 2,49,-1
 56 369 l 2,50,51
 56 398 56 398 66.5 424 c 128,-1,52
 77 450 77 450 95 469 c 128,-1,53
 113 488 113 488 137 499 c 128,-1,54
 161 510 161 510 189 510 c 0,55,56
 212 510 212 510 242.5 503.5 c 128,-1,57
 273 497 273 497 310 480 c 1,58,-1
 340 510 l 1,59,-1
 376 474 l 1,60,-1
 354 453 l 1,61,-1
 354 -117 l 2,20,21
EndSplineSet
EndChar

StartChar: h
Encoding: 104 104 72
Width: 424
Flags: W
LayerCount: 2
Fore
SplineSet
312 0 m 1,0,-1
 312 372 l 2,1,2
 312 408 312 408 288 433.5 c 128,-1,3
 264 459 264 459 229 459 c 0,4,5
 220 459 220 459 207 457.5 c 128,-1,6
 194 456 194 456 178 452 c 128,-1,7
 162 448 162 448 146 441 c 128,-1,8
 130 434 130 434 115 424 c 1,9,-1
 115 0 l 1,10,-1
 64 0 l 1,11,-1
 64 700 l 1,12,-1
 114 700 l 1,13,-1
 114 482 l 1,14,15
 154 503 154 503 183 506.5 c 128,-1,16
 212 510 212 510 229 510 c 0,17,18
 257 510 257 510 281 499 c 128,-1,19
 305 488 305 488 323 468.5 c 128,-1,20
 341 449 341 449 351.5 423.5 c 128,-1,21
 362 398 362 398 362 369 c 2,22,-1
 362 0 l 1,23,-1
 312 0 l 1,0,-1
EndSplineSet
EndChar

StartChar: i
Encoding: 105 105 73
Width: 181
Flags: W
LayerCount: 2
Fore
SplineSet
64 700 m 1,0,-1
 117 700 l 1,1,-1
 117 622 l 1,2,-1
 64 622 l 1,3,-1
 64 700 l 1,0,-1
64 500 m 1,4,-1
 117 500 l 1,5,-1
 117 0 l 1,6,-1
 64 0 l 1,7,-1
 64 500 l 1,4,-1
EndSplineSet
EndChar

StartChar: j
Encoding: 106 106 74
Width: 182
Flags: W
LayerCount: 2
Fore
SplineSet
63 501 m 1,0,-1
 118 501 l 1,1,-1
 118 -113 l 2,2,3
 118 -148 118 -148 109 -173 c 128,-1,4
 100 -198 100 -198 84 -213.5 c 128,-1,5
 68 -229 68 -229 46.5 -236.5 c 128,-1,6
 25 -244 25 -244 0 -244 c 2,7,-1
 -18 -244 l 1,8,-1
 -18 -190 l 1,9,-1
 -5 -190 l 2,10,11
 9 -190 9 -190 22 -186.5 c 128,-1,12
 35 -183 35 -183 44.5 -174.5 c 128,-1,13
 54 -166 54 -166 60 -152.5 c 128,-1,14
 66 -139 66 -139 66 -118 c 2,15,-1
 63 501 l 1,0,-1
63 699 m 1,16,-1
 118 699 l 1,17,-1
 118 625 l 1,18,-1
 63 625 l 1,19,-1
 63 699 l 1,16,-1
EndSplineSet
EndChar

StartChar: k
Encoding: 107 107 75
Width: 334
Flags: W
LayerCount: 2
Fore
SplineSet
255 0 m 1,0,-1
 148 239 l 1,1,-1
 115 239 l 1,2,-1
 115 0 l 1,3,-1
 64 0 l 1,4,-1
 64 700 l 1,5,-1
 115 700 l 1,6,-1
 115 300 l 1,7,-1
 147 300 l 1,8,-1
 254 499 l 1,9,-1
 311 499 l 1,10,-1
 188 268 l 1,11,-1
 312 0 l 1,12,-1
 255 0 l 1,0,-1
EndSplineSet
EndChar

StartChar: l
Encoding: 108 108 76
Width: 212
Flags: W
LayerCount: 2
Fore
SplineSet
70 700 m 1,0,-1
 122 700 l 1,1,-1
 122 127 l 2,2,3
 122 86 122 86 142.5 70.5 c 128,-1,4
 163 55 163 55 192 55 c 2,5,-1
 205 55 l 1,6,-1
 205 1 l 1,7,-1
 187 1 l 2,8,9
 162 1 162 1 140.5 8.5 c 128,-1,10
 119 16 119 16 103.5 31.5 c 128,-1,11
 88 47 88 47 79 72 c 128,-1,12
 70 97 70 97 70 132 c 2,13,-1
 70 700 l 1,0,-1
EndSplineSet
EndChar

StartChar: m
Encoding: 109 109 77
Width: 689
Flags: W
LayerCount: 2
Fore
SplineSet
320 376 m 2,0,1
 320 394 320 394 311.5 409 c 128,-1,2
 303 424 303 424 288.5 435 c 128,-1,3
 274 446 274 446 256 452.5 c 128,-1,4
 238 459 238 459 220 459 c 0,5,6
 211 459 211 459 196.5 456 c 128,-1,7
 182 453 182 453 167 448 c 128,-1,8
 152 443 152 443 138.5 437 c 128,-1,9
 125 431 125 431 116 424 c 1,10,-1
 116 0 l 1,11,-1
 65 0 l 1,12,-1
 65 452 l 1,13,-1
 43 474 l 1,14,-1
 79 509 l 1,15,-1
 109 478 l 1,16,17
 135 492 135 492 161.5 501 c 128,-1,18
 188 510 188 510 213 510 c 0,19,20
 258 510 258 510 296 491 c 128,-1,21
 334 472 334 472 349 432 c 1,22,23
 363 456 363 456 381 471 c 128,-1,24
 399 486 399 486 418.5 494.5 c 128,-1,25
 438 503 438 503 457.5 506.5 c 128,-1,26
 477 510 477 510 495 510 c 0,27,28
 531 510 531 510 556.5 497 c 128,-1,29
 582 484 582 484 598 463.5 c 128,-1,30
 614 443 614 443 621 418.5 c 128,-1,31
 628 394 628 394 628 370 c 2,32,-1
 628 0 l 1,33,-1
 576 0 l 1,34,-1
 576 363 l 2,35,36
 576 382 576 382 571.5 399 c 128,-1,37
 567 416 567 416 557.5 429 c 128,-1,38
 548 442 548 442 531.5 450 c 128,-1,39
 515 458 515 458 491 458 c 0,40,41
 428 458 428 458 400 422.5 c 128,-1,42
 372 387 372 387 372 323 c 2,43,-1
 372 0 l 1,44,-1
 320 0 l 1,45,-1
 320 376 l 2,0,1
EndSplineSet
EndChar

StartChar: n
Encoding: 110 110 78
Width: 432
Flags: W
LayerCount: 2
Fore
SplineSet
356 427 m 0,0,1
 368 402 368 402 370 376.5 c 128,-1,2
 372 351 372 351 372 324 c 2,3,-1
 372 0 l 1,4,-1
 319 0 l 1,5,-1
 319 355 l 2,6,7
 319 406 319 406 292 433 c 128,-1,8
 265 460 265 460 231 460 c 0,9,10
 212 460 212 460 182.5 454 c 128,-1,11
 153 448 153 448 116 424 c 1,12,-1
 116 0 l 1,13,-1
 65 0 l 1,14,-1
 65 451 l 1,15,-1
 43 472 l 1,16,-1
 79 508 l 1,17,-1
 109 478 l 1,18,19
 164 509 164 509 213 509 c 0,20,21
 258 509 258 509 297 490.5 c 128,-1,22
 336 472 336 472 356 427 c 0,0,1
EndSplineSet
EndChar

StartChar: o
Encoding: 111 111 79
Width: 418
Flags: W
LayerCount: 2
Fore
SplineSet
316 144 m 2,0,-1
 316 361 l 2,1,2
 316 394 316 394 304 413.5 c 128,-1,3
 292 433 292 433 275.5 443.5 c 128,-1,4
 259 454 259 454 240.5 457.5 c 128,-1,5
 222 461 222 461 209 461 c 256,6,7
 196 461 196 461 177.5 457.5 c 128,-1,8
 159 454 159 454 142 443.5 c 128,-1,9
 125 433 125 433 113 413.5 c 128,-1,10
 101 394 101 394 101 361 c 2,11,-1
 101 144 l 2,12,13
 101 111 101 111 113 91.5 c 128,-1,14
 125 72 125 72 142 61 c 128,-1,15
 159 50 159 50 177.5 46.5 c 128,-1,16
 196 43 196 43 209 43 c 256,17,18
 222 43 222 43 240.5 46.5 c 128,-1,19
 259 50 259 50 275.5 61 c 128,-1,20
 292 72 292 72 304 91.5 c 128,-1,21
 316 111 316 111 316 144 c 2,0,-1
362 137 m 2,22,23
 362 91 362 91 345 63 c 128,-1,24
 328 35 328 35 304 19.5 c 128,-1,25
 280 4 280 4 254 -1 c 128,-1,26
 228 -6 228 -6 209 -6 c 256,27,28
 190 -6 190 -6 164 -1 c 128,-1,29
 138 4 138 4 114 19.5 c 128,-1,30
 90 35 90 35 73 63 c 128,-1,31
 56 91 56 91 56 137 c 2,32,-1
 56 368 l 2,33,34
 56 414 56 414 73 442 c 128,-1,35
 90 470 90 470 114 485 c 128,-1,36
 138 500 138 500 164 505 c 128,-1,37
 190 510 190 510 209 510 c 256,38,39
 228 510 228 510 254 505 c 128,-1,40
 280 500 280 500 304 485 c 128,-1,41
 328 470 328 470 345 442 c 128,-1,42
 362 414 362 414 362 368 c 2,43,-1
 362 137 l 2,22,23
EndSplineSet
EndChar

StartChar: p
Encoding: 112 112 80
Width: 419
Flags: W
LayerCount: 2
Fore
SplineSet
116 76 m 1,0,1
 128 68 128 68 144 62 c 128,-1,2
 160 56 160 56 176 51 c 128,-1,3
 192 46 192 46 206.5 43.5 c 128,-1,4
 221 41 221 41 230 41 c 0,5,6
 265 41 265 41 289 66.5 c 128,-1,7
 313 92 313 92 313 128 c 2,8,-1
 313 373 l 2,9,10
 313 391 313 391 306.5 406.5 c 128,-1,11
 300 422 300 422 289 433.5 c 128,-1,12
 278 445 278 445 263 452 c 128,-1,13
 248 459 248 459 231 459 c 0,14,15
 222 459 222 459 208 457.5 c 128,-1,16
 194 456 194 456 178.5 451.5 c 128,-1,17
 163 447 163 447 147 440 c 128,-1,18
 131 433 131 433 116 423 c 1,19,-1
 116 76 l 1,0,1
115 18 m 1,20,-1
 115 -250 l 1,21,-1
 65 -250 l 1,22,-1
 65 453 l 1,23,-1
 43 474 l 1,24,-1
 78 510 l 1,25,-1
 109 480 l 1,26,27
 143 497 143 497 175 503.5 c 128,-1,28
 207 510 207 510 230 510 c 0,29,30
 258 510 258 510 282 499 c 128,-1,31
 306 488 306 488 324 469 c 128,-1,32
 342 450 342 450 352.5 424 c 128,-1,33
 363 398 363 398 363 369 c 2,34,-1
 363 131 l 2,35,36
 363 102 363 102 352.5 76.5 c 128,-1,37
 342 51 342 51 324 31.5 c 128,-1,38
 306 12 306 12 282 1 c 128,-1,39
 258 -10 258 -10 230 -10 c 0,40,41
 213 -10 213 -10 184 -6.5 c 128,-1,42
 155 -3 155 -3 115 18 c 1,20,-1
EndSplineSet
EndChar

StartChar: q
Encoding: 113 113 81
Width: 419
Flags: W
LayerCount: 2
Fore
SplineSet
303 422 m 1,0,1
 265 447 265 447 236 452.5 c 128,-1,2
 207 458 207 458 188 458 c 0,3,4
 171 458 171 458 156 451 c 128,-1,5
 141 444 141 444 130 432.5 c 128,-1,6
 119 421 119 421 112.5 405.5 c 128,-1,7
 106 390 106 390 106 372 c 2,8,-1
 106 128 l 2,9,10
 106 92 106 92 130 67 c 128,-1,11
 154 42 154 42 189 42 c 0,12,13
 198 42 198 42 212 44 c 128,-1,14
 226 46 226 46 242 50 c 128,-1,15
 258 54 258 54 274.5 60.5 c 128,-1,16
 291 67 291 67 303 77 c 1,17,-1
 303 422 l 1,0,1
285 7 m 2,18,19
 256 -7 256 -7 232.5 -8 c 128,-1,20
 209 -9 209 -9 192 -10 c 1,21,22
 164 -10 164 -10 139.5 1 c 128,-1,23
 115 12 115 12 96.5 31.5 c 128,-1,24
 78 51 78 51 67 76.5 c 128,-1,25
 56 102 56 102 56 131 c 2,26,-1
 56 368 l 2,27,28
 56 397 56 397 66.5 423 c 128,-1,29
 77 449 77 449 95 468 c 128,-1,30
 113 487 113 487 137 498 c 128,-1,31
 161 509 161 509 189 509 c 0,32,33
 211 509 211 509 243.5 502.5 c 128,-1,34
 276 496 276 496 310 479 c 1,35,-1
 341 509 l 1,36,-1
 376 473 l 1,37,-1
 354 452 l 1,38,-1
 354 -250 l 1,39,-1
 304 -250 l 1,40,-1
 304 16 l 1,41,-1
 285 7 l 2,18,19
EndSplineSet
EndChar

StartChar: r
Encoding: 114 114 82
Width: 330
Flags: W
LayerCount: 2
Fore
SplineSet
323 470 m 1,0,-1
 295 428 l 1,1,2
 278 438 278 438 267 443.5 c 128,-1,3
 256 449 256 449 246.5 452 c 128,-1,4
 237 455 237 455 228.5 455.5 c 128,-1,5
 220 456 220 456 210 456 c 0,6,7
 195 456 195 456 169 447.5 c 128,-1,8
 143 439 143 439 117 415 c 1,9,-1
 117 1 l 1,10,-1
 67 1 l 1,11,-1
 67 443 l 1,12,-1
 41 469 l 1,13,-1
 76 505 l 1,14,-1
 111 471 l 1,15,16
 140 497 140 497 166.5 503.5 c 128,-1,17
 193 510 193 510 212 510 c 0,18,19
 232 510 232 510 256 502 c 128,-1,20
 280 494 280 494 323 470 c 1,0,-1
EndSplineSet
EndChar

StartChar: s
Encoding: 115 115 83
Width: 361
Flags: W
LayerCount: 2
Fore
SplineSet
336 138 m 0,0,1
 336 64 336 64 299 27 c 128,-1,2
 262 -10 262 -10 204 -10 c 0,3,4
 186 -10 186 -10 167 -7 c 128,-1,5
 148 -4 148 -4 129 4 c 2,6,-1
 46 37 l 1,7,-1
 66 81 l 1,8,-1
 148 48 l 2,9,10
 163 42 163 42 177.5 39.5 c 128,-1,11
 192 37 192 37 205 37 c 0,12,13
 240 37 240 37 264 64 c 128,-1,14
 288 91 288 91 288 142 c 0,15,16
 288 163 288 163 279.5 178 c 128,-1,17
 271 193 271 193 258.5 202.5 c 128,-1,18
 246 212 246 212 230.5 216.5 c 128,-1,19
 215 221 215 221 202 221 c 0,20,21
 166 221 166 221 137 227.5 c 128,-1,22
 108 234 108 234 87.5 250.5 c 128,-1,23
 67 267 67 267 56 294 c 128,-1,24
 45 321 45 321 45 362 c 0,25,26
 45 435 45 435 84.5 472.5 c 128,-1,27
 124 510 124 510 182 510 c 0,28,29
 199 510 199 510 217.5 505.5 c 128,-1,30
 236 501 236 501 256 494 c 2,31,-1
 289 482 l 1,32,-1
 270 439 l 1,33,34
 246 448 246 448 231.5 452.5 c 128,-1,35
 217 457 217 457 208.5 459 c 128,-1,36
 200 461 200 461 195.5 461.5 c 128,-1,37
 191 462 191 462 186 462 c 2,38,-1
 181 462 l 2,39,40
 146 462 146 462 119.5 434.5 c 128,-1,41
 93 407 93 407 93 357 c 0,42,43
 93 336 93 336 102 320 c 128,-1,44
 111 304 111 304 125 292.5 c 128,-1,45
 139 281 139 281 154.5 275.5 c 128,-1,46
 170 270 170 270 184 270 c 0,47,48
 215 270 215 270 243 264.5 c 128,-1,49
 271 259 271 259 291.5 244.5 c 128,-1,50
 312 230 312 230 324 204 c 128,-1,51
 336 178 336 178 336 138 c 0,0,1
EndSplineSet
EndChar

StartChar: t
Encoding: 116 116 84
Width: 267
Flags: W
LayerCount: 2
Fore
SplineSet
104 130 m 2,0,-1
 104 451 l 1,1,-1
 19 451 l 1,2,-1
 19 501 l 1,3,-1
 104 501 l 1,4,-1
 104 700 l 1,5,-1
 157 700 l 1,6,-1
 157 501 l 1,7,-1
 249 501 l 1,8,-1
 249 451 l 1,9,-1
 157 451 l 1,10,-1
 157 125 l 2,11,12
 157 84 157 84 177.5 68.5 c 128,-1,13
 198 53 198 53 227 53 c 2,14,-1
 249 53 l 1,15,-1
 249 -1 l 1,16,-1
 222 -1 l 2,17,18
 197 -1 197 -1 175.5 6.5 c 128,-1,19
 154 14 154 14 138 29.5 c 128,-1,20
 122 45 122 45 113 70 c 128,-1,21
 104 95 104 95 104 130 c 2,0,-1
EndSplineSet
EndChar

StartChar: u
Encoding: 117 117 85
Width: 432
Flags: W
LayerCount: 2
Fore
SplineSet
77 74 m 0,0,1
 65 99 65 99 63 124.5 c 128,-1,2
 61 150 61 150 61 177 c 2,3,-1
 61 500 l 1,4,-1
 113 500 l 1,5,-1
 113 146 l 2,6,7
 113 120 113 120 120.5 100.5 c 128,-1,8
 128 81 128 81 140.5 68 c 128,-1,9
 153 55 153 55 169 48 c 128,-1,10
 185 41 185 41 202 41 c 0,11,12
 234 41 234 41 266.5 52.5 c 128,-1,13
 299 64 299 64 317 77 c 1,14,-1
 317 500 l 1,15,-1
 368 500 l 1,16,-1
 368 50 l 1,17,-1
 390 29 l 1,18,-1
 354 -7 l 1,19,-1
 324 23 l 1,20,21
 295 7 295 7 262 -0.5 c 128,-1,22
 229 -8 229 -8 203 -8 c 0,23,24
 167 -8 167 -8 132 10.5 c 128,-1,25
 97 29 97 29 77 74 c 0,0,1
EndSplineSet
EndChar

StartChar: v
Encoding: 118 118 86
Width: 363
Flags: W
LayerCount: 2
Fore
SplineSet
289 500 m 1,0,-1
 340 500 l 1,1,-1
 227 0 l 1,2,-1
 142 0 l 1,3,-1
 23 500 l 1,4,-1
 73 500 l 1,5,-1
 148 200 l 2,6,7
 152 185 152 185 156.5 162.5 c 128,-1,8
 161 140 161 140 165 119 c 128,-1,9
 169 98 169 98 172 83 c 128,-1,10
 175 68 175 68 175 68 c 1,11,-1
 195 68 l 1,12,13
 201 95 201 95 206 120 c 0,14,15
 211 141 211 141 215 163.5 c 128,-1,16
 219 186 219 186 223 201 c 2,17,-1
 289 500 l 1,0,-1
EndSplineSet
EndChar

StartChar: w
Encoding: 119 119 87
Width: 532
Flags: W
LayerCount: 2
Fore
SplineSet
309 499 m 1,0,-1
 382 65 l 1,1,-1
 390 65 l 1,2,-1
 453 500 l 1,3,-1
 503 500 l 1,4,-1
 423 0 l 1,5,-1
 349 0 l 1,6,-1
 271 436 l 1,7,-1
 260 436 l 1,8,-1
 182 0 l 1,9,-1
 109 0 l 1,10,-1
 29 500 l 1,11,-1
 79 500 l 1,12,-1
 139 66 l 1,13,-1
 148 66 l 1,14,-1
 222 499 l 1,15,-1
 309 499 l 1,0,-1
EndSplineSet
EndChar

StartChar: x
Encoding: 120 120 88
Width: 364
Flags: W
LayerCount: 2
Fore
SplineSet
170 220 m 1,0,-1
 76 0 l 1,1,-1
 25 0 l 1,2,-1
 131 249 l 1,3,-1
 25 500 l 1,4,-1
 76 500 l 1,5,-1
 174 280 l 1,6,-1
 190 280 l 1,7,-1
 283 500 l 1,8,-1
 336 500 l 1,9,-1
 234 249 l 1,10,-1
 339 1 l 1,11,-1
 286 1 l 1,12,-1
 191 220 l 1,13,-1
 170 220 l 1,0,-1
EndSplineSet
EndChar

StartChar: y
Encoding: 121 121 89
Width: 375
Flags: W
LayerCount: 2
Fore
SplineSet
121 -250 m 1,0,-1
 162 0 l 1,1,-1
 155 0 l 1,2,-1
 22 500 l 1,3,-1
 73 500 l 1,4,5
 99 390 99 390 119.5 313.5 c 128,-1,6
 140 237 140 237 154 188 c 0,7,8
 170 131 170 131 181 94 c 1,9,-1
 193 94 l 1,10,11
 202 131 202 131 217 188 c 0,12,13
 230 237 230 237 250.5 313.5 c 128,-1,14
 271 390 271 390 302 500 c 1,15,-1
 353 500 l 1,16,-1
 219 0 l 1,17,-1
 213 0 l 1,18,-1
 172 -250 l 1,19,-1
 121 -250 l 1,0,-1
EndSplineSet
EndChar

StartChar: z
Encoding: 122 122 90
Width: 406
Flags: W
LayerCount: 2
Fore
SplineSet
376 0 m 1,0,-1
 35 0 l 1,1,-1
 35 52 l 1,2,-1
 288 428 l 1,3,-1
 288 447 l 1,4,-1
 44 447 l 1,5,-1
 44 498 l 1,6,-1
 359 498 l 1,7,-1
 359 446 l 1,8,-1
 106 69 l 1,9,-1
 106 51 l 1,10,-1
 376 51 l 1,11,-1
 376 0 l 1,0,-1
EndSplineSet
EndChar

StartChar: braceleft
Encoding: 123 123 91
Width: 233
Flags: W
LayerCount: 2
Fore
SplineSet
179 -74 m 2,0,1
 145 -74 145 -74 124.5 -67.5 c 128,-1,2
 104 -61 104 -61 91 -48 c 0,3,4
 77 -34 77 -34 71 -15 c 128,-1,5
 65 4 65 4 65 39 c 2,6,-1
 65 661 l 2,7,8
 65 696 65 696 71 715 c 128,-1,9
 77 734 77 734 91 748 c 0,10,11
 104 761 104 761 124.5 767.5 c 128,-1,12
 145 774 145 774 179 774 c 2,13,-1
 202 774 l 1,14,-1
 202 725 l 1,15,-1
 184 725 l 2,16,17
 161 725 161 725 149 723.5 c 128,-1,18
 137 722 137 722 129 714 c 0,19,20
 120 705 120 705 117.5 689 c 128,-1,21
 115 673 115 673 115 649 c 2,22,-1
 115 47 l 2,23,24
 115 23 115 23 117.5 8.5 c 128,-1,25
 120 -6 120 -6 129 -14 c 0,26,27
 137 -22 137 -22 149 -23.5 c 128,-1,28
 161 -25 161 -25 184 -25 c 2,29,-1
 202 -25 l 1,30,-1
 202 -74 l 1,31,-1
 179 -74 l 2,0,1
EndSplineSet
EndChar

StartChar: bar
Encoding: 124 124 92
Width: 186
Flags: W
LayerCount: 2
Fore
SplineSet
68 -10 m 1,0,-1
 68 700 l 1,1,-1
 118 700 l 1,2,-1
 118 -10 l 1,3,-1
 68 -10 l 1,0,-1
EndSplineSet
EndChar

StartChar: braceright
Encoding: 125 125 93
Width: 238
Flags: W
LayerCount: 2
Fore
SplineSet
173 41 m 1,0,1
 173 6 173 6 167 -13 c 128,-1,2
 161 -32 161 -32 147 -46 c 0,3,4
 133 -59 133 -59 112.5 -65.5 c 128,-1,5
 92 -72 92 -72 58 -72 c 2,6,-1
 32 -72 l 1,7,-1
 32 -23 l 1,8,-1
 53 -23 l 1,9,-1
 66 -23 l 2,10,11
 83 -23 83 -23 92.5 -21.5 c 128,-1,12
 102 -20 102 -20 109 -13 c 0,13,14
 117 -5 117 -5 120 9.5 c 128,-1,15
 123 24 123 24 123 48 c 2,16,-1
 123 655 l 2,17,18
 123 679 123 679 120 693.5 c 128,-1,19
 117 708 117 708 109 716 c 256,20,21
 101 724 101 724 88.5 725.5 c 128,-1,22
 76 727 76 727 53 727 c 2,23,-1
 32 727 l 1,24,-1
 32 776 l 1,25,-1
 58 776 l 2,26,27
 92 776 92 776 112.5 769.5 c 128,-1,28
 133 763 133 763 147 750 c 0,29,30
 161 736 161 736 167 717 c 128,-1,31
 173 698 173 698 173 663 c 2,32,-1
 173 41 l 1,33,-1
 173 41 l 1,0,1
EndSplineSet
EndChar

StartChar: asciitilde
Encoding: 126 126 94
Width: 460
Flags: W
LayerCount: 2
Fore
SplineSet
415 283 m 1,0,1
 397 265 397 265 383 254 c 128,-1,2
 369 243 369 243 357 237 c 128,-1,3
 345 231 345 231 333 228.5 c 128,-1,4
 321 226 321 226 307 226 c 0,5,6
 288 226 288 226 268.5 233.5 c 128,-1,7
 249 241 249 241 229.5 250 c 128,-1,8
 210 259 210 259 190.5 266.5 c 128,-1,9
 171 274 171 274 151 274 c 0,10,11
 133 274 133 274 118.5 267.5 c 128,-1,12
 104 261 104 261 79 236 c 1,13,-1
 46 263 l 1,14,15
 64 281 64 281 77.5 292 c 128,-1,16
 91 303 91 303 103.5 309 c 128,-1,17
 116 315 116 315 128 317.5 c 128,-1,18
 140 320 140 320 154 320 c 0,19,20
 175 320 175 320 194 312.5 c 128,-1,21
 213 305 213 305 232 296 c 128,-1,22
 251 287 251 287 269.5 279.5 c 128,-1,23
 288 272 288 272 309 272 c 0,24,25
 327 272 327 272 341.5 278.5 c 128,-1,26
 356 285 356 285 381 310 c 1,27,-1
 415 283 l 1,0,1
EndSplineSet
EndChar

StartChar: exclamdown
Encoding: 161 161 95
Width: 190
Flags: W
LayerCount: 2
Fore
SplineSet
121 560 m 1,0,-1
 121 1 l 1,1,-1
 69 1 l 1,2,-1
 69 560 l 1,3,-1
 121 560 l 1,0,-1
121 700 m 1,4,-1
 121 610 l 1,5,-1
 68 610 l 1,6,-1
 68 700 l 1,7,-1
 121 700 l 1,4,-1
EndSplineSet
EndChar

StartChar: cent
Encoding: 162 162 96
Width: 355
Flags: W
LayerCount: 2
Fore
SplineSet
172 508 m 1,0,-1
 172 637 l 1,1,-1
 222 637 l 1,2,-1
 222 511 l 1,3,4
 237 509 237 509 252.5 505 c 128,-1,5
 268 501 268 501 281 497 c 0,6,7
 296 492 296 492 310 487 c 1,8,-1
 298 444 l 1,9,10
 283 449 283 449 267 453 c 0,11,12
 253 457 253 457 238 460 c 128,-1,13
 223 463 223 463 209 463 c 0,14,15
 165 463 165 463 133.5 434.5 c 128,-1,16
 102 406 102 406 102 358 c 2,17,-1
 102 149 l 2,18,19
 102 125 102 125 110.5 105.5 c 128,-1,20
 119 86 119 86 134 72 c 128,-1,21
 149 58 149 58 168.5 50.5 c 128,-1,22
 188 43 188 43 210 43 c 0,23,24
 220 43 220 43 235 45.5 c 128,-1,25
 250 48 250 48 264 51 c 0,26,27
 281 55 281 55 299 60 c 1,28,-1
 315 14 l 1,29,30
 299 9 299 9 283 5 c 0,31,32
 269 1 269 1 252.5 -2 c 128,-1,33
 236 -5 236 -5 222 -6 c 1,34,-1
 222 -131 l 1,35,-1
 172 -131 l 1,36,-1
 172 -3 l 1,37,38
 120 9 120 9 86 50 c 128,-1,39
 52 91 52 91 52 149 c 2,40,-1
 52 358 l 2,41,42
 52 417 52 417 86 457 c 128,-1,43
 120 497 120 497 172 508 c 1,0,-1
EndSplineSet
EndChar

StartChar: sterling
Encoding: 163 163 97
Width: 504
Flags: W
LayerCount: 2
Fore
SplineSet
401 526 m 1,0,1
 401 567 401 567 387 592.5 c 128,-1,2
 373 618 373 618 353 632 c 128,-1,3
 333 646 333 646 309.5 650.5 c 128,-1,4
 286 655 286 655 268 655 c 0,5,6
 248 655 248 655 226 650 c 128,-1,7
 204 645 204 645 185 630.5 c 128,-1,8
 166 616 166 616 154 591.5 c 128,-1,9
 142 567 142 567 142 528 c 2,10,-1
 142 382 l 1,11,-1
 363 382 l 1,12,-1
 363 323 l 1,13,-1
 142 323 l 1,14,-1
 142 54 l 1,15,-1
 455 54 l 1,16,-1
 455 0 l 1,17,-1
 87 0 l 1,18,-1
 87 323 l 1,19,-1
 48 323 l 1,20,-1
 48 382 l 1,21,-1
 87 382 l 1,22,-1
 87 526 l 2,23,24
 87 566 87 566 99.5 599.5 c 128,-1,25
 112 633 112 633 136 657.5 c 128,-1,26
 160 682 160 682 193.5 695.5 c 128,-1,27
 227 709 227 709 269 709 c 0,28,29
 310 709 310 709 344.5 695.5 c 128,-1,30
 379 682 379 682 403.5 657.5 c 128,-1,31
 428 633 428 633 442 599.5 c 128,-1,32
 456 566 456 566 456 526 c 1,33,-1
 401 526 l 1,0,1
EndSplineSet
EndChar

StartChar: yen
Encoding: 165 165 98
Width: 481
Flags: W
LayerCount: 2
Fore
SplineSet
412 176 m 1,0,-1
 270 176 l 1,1,-1
 270 1 l 1,2,-1
 210 1 l 1,3,-1
 210 176 l 1,4,-1
 69 176 l 1,5,-1
 69 240 l 1,6,-1
 210 240 l 1,7,-1
 210 319 l 1,8,-1
 198 319 l 1,9,-1
 176 371 l 1,10,-1
 69 371 l 1,11,-1
 69 435 l 1,12,-1
 150 435 l 1,13,-1
 39 701 l 1,14,-1
 95 701 l 1,15,-1
 232 379 l 1,16,-1
 249 379 l 1,17,-1
 386 701 l 1,18,-1
 442 701 l 1,19,-1
 332 435 l 1,20,-1
 412 435 l 1,21,-1
 412 371 l 1,22,-1
 305 371 l 1,23,-1
 284 319 l 1,24,-1
 270 319 l 1,25,-1
 270 240 l 1,26,-1
 412 240 l 1,27,-1
 412 176 l 1,28,-1
 412 176 l 1,0,-1
EndSplineSet
EndChar

StartChar: brokenbar
Encoding: 166 166 99
Width: 190
Flags: W
LayerCount: 2
Fore
SplineSet
69 700 m 1,0,-1
 121 700 l 1,1,-1
 121 388 l 1,2,-1
 69 388 l 1,3,-1
 69 700 l 1,0,-1
69 312 m 1,4,-1
 121 312 l 1,5,-1
 121 0 l 1,6,-1
 69 0 l 1,7,-1
 69 312 l 1,4,-1
EndSplineSet
EndChar

StartChar: dieresis
Encoding: 168 168 100
Width: 451
Flags: W
LayerCount: 2
Fore
SplineSet
302 600 m 1,0,-1
 302 677 l 1,1,-1
 360 677 l 1,2,-1
 360 600 l 1,3,-1
 302 600 l 1,0,-1
104 600 m 1,4,-1
 104 677 l 1,5,-1
 162 677 l 1,6,-1
 162 600 l 1,7,-1
 104 600 l 1,4,-1
EndSplineSet
EndChar

StartChar: copyright
Encoding: 169 169 101
Width: 799
Flags: W
LayerCount: 2
Fore
SplineSet
758 349 m 256,0,1
 758 275 758 275 730 209.5 c 128,-1,2
 702 144 702 144 653.5 95 c 128,-1,3
 605 46 605 46 539.5 18 c 128,-1,4
 474 -10 474 -10 400 -10 c 256,5,6
 326 -10 326 -10 260.5 18 c 128,-1,7
 195 46 195 46 146 95 c 128,-1,8
 97 144 97 144 69 209.5 c 128,-1,9
 41 275 41 275 41 349 c 256,10,11
 41 423 41 423 69 488.5 c 128,-1,12
 97 554 97 554 146 602.5 c 128,-1,13
 195 651 195 651 260.5 679.5 c 128,-1,14
 326 708 326 708 400 708 c 256,15,16
 474 708 474 708 539.5 679.5 c 128,-1,17
 605 651 605 651 653.5 602.5 c 128,-1,18
 702 554 702 554 730 488.5 c 128,-1,19
 758 423 758 423 758 349 c 256,0,1
708 349 m 0,20,21
 708 413 708 413 684 469.5 c 128,-1,22
 660 526 660 526 618 568 c 128,-1,23
 576 610 576 610 520 634 c 128,-1,24
 464 658 464 658 400 658 c 256,25,26
 336 658 336 658 280 634 c 128,-1,27
 224 610 224 610 182 568 c 128,-1,28
 140 526 140 526 115.5 469.5 c 128,-1,29
 91 413 91 413 91 349 c 0,30,31
 91 284 91 284 115.5 228 c 128,-1,32
 140 172 140 172 182 130 c 128,-1,33
 224 88 224 88 280 64 c 128,-1,34
 336 40 336 40 400 40 c 256,35,36
 464 40 464 40 520 64 c 128,-1,37
 576 88 576 88 618 130 c 128,-1,38
 660 172 660 172 684 228 c 128,-1,39
 708 284 708 284 708 349 c 0,20,21
325 271 m 2,40,41
 325 233 325 233 350.5 210 c 128,-1,42
 376 187 376 187 411 187 c 0,43,44
 419 187 419 187 430.5 189 c 128,-1,45
 442 191 442 191 453 194 c 0,46,47
 466 197 466 197 481 201 c 1,48,-1
 493 165 l 1,49,50
 478 160 478 160 463 156 c 0,51,52
 450 153 450 153 436 150.5 c 128,-1,53
 422 148 422 148 411 148 c 0,54,55
 385 148 385 148 362.5 157 c 128,-1,56
 340 166 340 166 323 182.5 c 128,-1,57
 306 199 306 199 296 221.5 c 128,-1,58
 286 244 286 244 286 271 c 2,59,-1
 286 440 l 2,60,61
 286 467 286 467 295.5 489 c 128,-1,62
 305 511 305 511 322 527 c 128,-1,63
 339 543 339 543 361.5 552 c 128,-1,64
 384 561 384 561 410 561 c 0,65,66
 422 561 422 561 436 558 c 128,-1,67
 450 555 450 555 462 551 c 0,68,69
 476 547 476 547 489 541 c 1,70,-1
 480 507 l 1,71,72
 468 510 468 510 456 514 c 0,73,74
 445 517 445 517 433 519.5 c 128,-1,75
 421 522 421 522 410 522 c 0,76,77
 375 522 375 522 350 499.5 c 128,-1,78
 325 477 325 477 325 440 c 2,79,-1
 325 271 l 2,40,41
EndSplineSet
EndChar

StartChar: registered
Encoding: 174 174 102
Width: 799
Flags: W
LayerCount: 2
Fore
SplineSet
758 353 m 256,0,1
 758 279 758 279 730 213.5 c 128,-1,2
 702 148 702 148 653.5 99 c 128,-1,3
 605 50 605 50 539.5 22 c 128,-1,4
 474 -6 474 -6 400 -6 c 256,5,6
 326 -6 326 -6 260.5 22 c 128,-1,7
 195 50 195 50 146 99 c 128,-1,8
 97 148 97 148 69 213.5 c 128,-1,9
 41 279 41 279 41 353 c 256,10,11
 41 427 41 427 69 492.5 c 128,-1,12
 97 558 97 558 146 606.5 c 128,-1,13
 195 655 195 655 260.5 683.5 c 128,-1,14
 326 712 326 712 400 712 c 256,15,16
 474 712 474 712 539.5 683.5 c 128,-1,17
 605 655 605 655 653.5 606.5 c 128,-1,18
 702 558 702 558 730 492.5 c 128,-1,19
 758 427 758 427 758 353 c 256,0,1
708 353 m 0,20,21
 708 417 708 417 684 473.5 c 128,-1,22
 660 530 660 530 618 572 c 128,-1,23
 576 614 576 614 520 638 c 128,-1,24
 464 662 464 662 400 662 c 256,25,26
 336 662 336 662 280 638 c 128,-1,27
 224 614 224 614 182 572 c 128,-1,28
 140 530 140 530 115.5 473.5 c 128,-1,29
 91 417 91 417 91 353 c 0,30,31
 91 288 91 288 115.5 232 c 128,-1,32
 140 176 140 176 182 134 c 128,-1,33
 224 92 224 92 280 68 c 128,-1,34
 336 44 336 44 400 44 c 256,35,36
 464 44 464 44 520 68 c 128,-1,37
 576 92 576 92 618 134 c 128,-1,38
 660 176 660 176 684 232 c 128,-1,39
 708 288 708 288 708 353 c 0,20,21
394 533 m 0,40,41
 383 533 383 533 371.5 530.5 c 128,-1,42
 360 528 360 528 350 525 c 0,43,44
 339 521 339 521 327 518 c 1,45,-1
 327 352 l 1,46,-1
 394 352 l 2,47,48
 436 352 436 352 462 377 c 128,-1,49
 488 402 488 402 488 449 c 256,50,51
 488 496 488 496 462 514.5 c 128,-1,52
 436 533 436 533 394 533 c 0,40,41
455 328 m 1,53,-1
 528 147 l 1,54,-1
 494 147 l 1,55,-1
 421 319 l 1,56,57
 416 317 416 317 410 317 c 128,-1,58
 404 317 404 317 398 317 c 2,59,-1
 327 317 l 1,60,-1
 327 147 l 1,61,-1
 296 147 l 1,62,-1
 296 545 l 1,63,64
 311 551 311 551 329 556 c 0,65,66
 344 561 344 561 362 564.5 c 128,-1,67
 380 568 380 568 399 568 c 0,68,69
 423 568 423 568 445.5 560 c 128,-1,70
 468 552 468 552 485.5 537 c 128,-1,71
 503 522 503 522 513 499.5 c 128,-1,72
 523 477 523 477 523 449 c 0,73,74
 523 409 523 409 504 374.5 c 128,-1,75
 485 340 485 340 455 328 c 1,53,-1
EndSplineSet
EndChar

StartChar: degree
Encoding: 176 176 103
Width: 330
Flags: W
LayerCount: 2
Fore
SplineSet
290 586 m 256,0,1
 290 560 290 560 280 537.5 c 128,-1,2
 270 515 270 515 253 498 c 128,-1,3
 236 481 236 481 213 471 c 128,-1,4
 190 461 190 461 164 461 c 256,5,6
 138 461 138 461 115.5 471 c 128,-1,7
 93 481 93 481 76.5 498 c 128,-1,8
 60 515 60 515 50 537.5 c 128,-1,9
 40 560 40 560 40 586 c 256,10,11
 40 612 40 612 50 634.5 c 128,-1,12
 60 657 60 657 76.5 674 c 128,-1,13
 93 691 93 691 115.5 701 c 128,-1,14
 138 711 138 711 164 711 c 256,15,16
 190 711 190 711 213 701.5 c 128,-1,17
 236 692 236 692 253 675 c 128,-1,18
 270 658 270 658 280 635 c 128,-1,19
 290 612 290 612 290 586 c 256,0,1
244 586 m 0,20,21
 244 619 244 619 220.5 642 c 128,-1,22
 197 665 197 665 164 665 c 0,23,24
 132 665 132 665 108.5 642 c 128,-1,25
 85 619 85 619 85 586 c 0,26,27
 85 554 85 554 108.5 531 c 128,-1,28
 132 508 132 508 164 508 c 0,29,30
 197 508 197 508 220.5 531 c 128,-1,31
 244 554 244 554 244 586 c 0,20,21
EndSplineSet
EndChar

StartChar: acute
Encoding: 180 180 104
Width: 463
Flags: W
LayerCount: 2
Fore
SplineSet
257 590 m 1,0,-1
 205 590 l 1,1,-1
 302 737 l 1,2,-1
 363 737 l 1,3,-1
 257 590 l 1,0,-1
EndSplineSet
EndChar

StartChar: mu
Encoding: 181 181 105
AltUni2: 0003bc.ffffffff.0
Width: 441
Flags: W
LayerCount: 2
Fore
SplineSet
73 -208 m 1,0,-1
 73 132 l 1,1,2
 72 143 72 143 72 154 c 128,-1,3
 72 165 72 165 72 177 c 2,4,-1
 72 500 l 1,5,-1
 73 500 l 1,6,-1
 73 502 l 1,7,-1
 123 502 l 1,8,-1
 123 500 l 1,9,-1
 124 500 l 1,10,-1
 124 146 l 2,11,12
 124 120 124 120 131.5 100.5 c 128,-1,13
 139 81 139 81 151.5 68 c 128,-1,14
 164 55 164 55 180 48 c 128,-1,15
 196 41 196 41 213 41 c 0,16,17
 245 41 245 41 277.5 52.5 c 128,-1,18
 310 64 310 64 328 77 c 1,19,-1
 328 500 l 1,20,-1
 379 500 l 1,21,-1
 379 50 l 1,22,-1
 401 29 l 1,23,-1
 365 -7 l 1,24,-1
 335 23 l 1,25,26
 306 7 306 7 273 -0.5 c 128,-1,27
 240 -8 240 -8 214 -8 c 0,28,29
 190 -8 190 -8 166.5 -0.5 c 128,-1,30
 143 7 143 7 123 24 c 1,31,-1
 123 -208 l 1,32,-1
 73 -208 l 1,0,-1
EndSplineSet
EndChar

StartChar: cedilla
Encoding: 184 184 106
Width: 394
Flags: W
LayerCount: 2
Fore
SplineSet
234 -98 m 1,0,1
 234 -154 234 -154 219 -182 c 128,-1,2
 204 -210 204 -210 178 -222 c 1,3,-1
 149 -186 l 1,4,5
 166 -178 166 -178 176 -155.5 c 128,-1,6
 186 -133 186 -133 186 -97 c 2,7,-1
 186 -46 l 1,8,-1
 234 -46 l 1,9,-1
 234 -98 l 1,10,-1
 234 -98 l 1,0,1
EndSplineSet
EndChar

StartChar: questiondown
Encoding: 191 191 107
Width: 418
Flags: W
LayerCount: 2
Fore
SplineSet
295 463 m 1,0,-1
 295 373 l 1,1,-1
 226 373 l 1,2,-1
 226 463 l 1,3,-1
 295 463 l 1,0,-1
36 -76 m 0,4,5
 36 -44 36 -44 45.5 -21 c 128,-1,6
 55 2 55 2 66 19 c 2,7,-1
 209 234 l 2,8,9
 219 248 219 248 226 263.5 c 128,-1,10
 233 279 233 279 233 302 c 2,11,-1
 233 323 l 1,12,-1
 291 323 l 1,13,-1
 291 303 l 2,14,15
 291 268 291 268 282.5 245 c 128,-1,16
 274 222 274 222 262 205 c 2,17,-1
 126 1 l 2,18,19
 115 -16 115 -16 104 -36 c 128,-1,20
 93 -56 93 -56 93 -75 c 0,21,22
 93 -101 93 -101 106 -122 c 128,-1,23
 119 -143 119 -143 138.5 -157.5 c 128,-1,24
 158 -172 158 -172 180.5 -180 c 128,-1,25
 203 -188 203 -188 221 -188 c 0,26,27
 233 -188 233 -188 245.5 -185 c 128,-1,28
 258 -182 258 -182 270 -177 c 2,29,-1
 368 -140 l 1,30,-1
 387 -194 l 1,31,-1
 303 -229 l 2,32,33
 286 -236 286 -236 262 -241.5 c 128,-1,34
 238 -247 238 -247 222 -247 c 0,35,36
 186 -247 186 -247 152 -234.5 c 128,-1,37
 118 -222 118 -222 92.5 -199.5 c 128,-1,38
 67 -177 67 -177 51.5 -145.5 c 128,-1,39
 36 -114 36 -114 36 -76 c 0,4,5
EndSplineSet
EndChar

StartChar: AE
Encoding: 198 198 113
Width: 733
Flags: W
LayerCount: 2
Fore
SplineSet
356 635 m 1,0,-1
 186 255 l 1,1,-1
 407 254 l 1,2,-1
 408 634 l 1,3,-1
 356 635 l 1,0,-1
334 700 m 1,4,-1
 688 700 l 1,5,-1
 688 643 l 1,6,-1
 461 643 l 1,7,-1
 461 381 l 1,8,-1
 639 381 l 1,9,-1
 639 323 l 1,10,-1
 461 323 l 1,11,-1
 461 59 l 1,12,-1
 690 59 l 1,13,-1
 690 1 l 1,14,-1
 407 1 l 1,15,-1
 407 196 l 1,16,-1
 157 196 l 1,17,-1
 68 1 l 1,18,-1
 14 1 l 1,19,-1
 334 700 l 1,4,-1
EndSplineSet
EndChar

StartChar: multiply
Encoding: 215 215 129
Width: 452
Flags: W
LayerCount: 2
Fore
SplineSet
362 99 m 1,0,-1
 226 235 l 1,1,-1
 90 99 l 1,2,-1
 55 134 l 1,3,-1
 191 270 l 1,4,-1
 55 406 l 1,5,-1
 90 441 l 1,6,-1
 226 305 l 1,7,-1
 362 441 l 1,8,-1
 397 406 l 1,9,-1
 261 270 l 1,10,-1
 397 134 l 1,11,-1
 362 99 l 1,0,-1
EndSplineSet
EndChar

StartChar: Oslash
Encoding: 216 216 130
Width: 520
Flags: W
LayerCount: 2
Fore
SplineSet
397 172 m 2,0,-1
 397 523 l 2,1,2
 397 563 397 563 381.5 587.5 c 128,-1,3
 366 612 366 612 344.5 625.5 c 128,-1,4
 323 639 323 639 299.5 643.5 c 128,-1,5
 276 648 276 648 260 648 c 256,6,7
 244 648 244 648 220.5 643 c 128,-1,8
 197 638 197 638 175 624.5 c 128,-1,9
 153 611 153 611 137.5 586.5 c 128,-1,10
 122 562 122 562 122 522 c 2,11,-1
 122 171 l 2,12,13
 122 131 122 131 137.5 107.5 c 128,-1,14
 153 84 153 84 175 71.5 c 128,-1,15
 197 59 197 59 220.5 55.5 c 128,-1,16
 244 52 244 52 260 52 c 256,17,18
 276 52 276 52 299.5 56 c 128,-1,19
 323 60 323 60 344.5 72.5 c 128,-1,20
 366 85 366 85 381.5 108.5 c 128,-1,21
 397 132 397 132 397 172 c 2,0,-1
452 172 m 2,22,23
 452 150 452 150 443.5 119 c 128,-1,24
 435 88 435 88 413 59.5 c 128,-1,25
 391 31 391 31 353.5 11 c 128,-1,26
 316 -9 316 -9 259 -9 c 0,27,28
 203 -9 203 -9 166 11 c 128,-1,29
 129 31 129 31 107.5 59.5 c 128,-1,30
 86 88 86 88 77 119 c 128,-1,31
 68 150 68 150 68 172 c 2,32,-1
 68 522 l 2,33,34
 68 544 68 544 76.5 576 c 128,-1,35
 85 608 85 608 107 637.5 c 128,-1,36
 129 667 129 667 166 688 c 128,-1,37
 203 709 203 709 260 709 c 0,38,39
 316 709 316 709 353 688 c 128,-1,40
 390 667 390 667 412 638 c 128,-1,41
 434 609 434 609 443 577 c 128,-1,42
 452 545 452 545 452 523 c 2,43,-1
 452 172 l 2,22,23
291 766 m 1,44,-1
 351 766 l 1,45,-1
 229 -66 l 1,46,-1
 169 -66 l 1,47,-1
 291 766 l 1,44,-1
EndSplineSet
EndChar

StartChar: Thorn
Encoding: 222 222 136
Width: 429
Flags: W
LayerCount: 2
Fore
SplineSet
130 71 m 1,0,1
 159 56 159 56 186 49 c 128,-1,2
 213 42 213 42 245 42 c 0,3,4
 262 42 262 42 277 49 c 128,-1,5
 292 56 292 56 303 68 c 128,-1,6
 314 80 314 80 320.5 95.5 c 128,-1,7
 327 111 327 111 327 129 c 2,8,-1
 327 372 l 2,9,10
 327 408 327 408 303 433.5 c 128,-1,11
 279 459 279 459 244 459 c 0,12,13
 220 459 220 459 186.5 450.5 c 128,-1,14
 153 442 153 442 130 424 c 1,15,-1
 130 71 l 1,0,1
129 482 m 1,16,17
 169 503 169 503 198 506.5 c 128,-1,18
 227 510 227 510 244 510 c 0,19,20
 272 510 272 510 296 499 c 128,-1,21
 320 488 320 488 338 468.5 c 128,-1,22
 356 449 356 449 366.5 423.5 c 128,-1,23
 377 398 377 398 377 369 c 2,24,-1
 377 133 l 2,25,26
 377 104 377 104 366.5 78.5 c 128,-1,27
 356 53 356 53 338 34 c 128,-1,28
 320 15 320 15 296 4 c 128,-1,29
 272 -7 272 -7 244 -7 c 0,30,31
 223 -7 223 -7 191.5 -2 c 128,-1,32
 160 3 160 3 128 19 c 1,33,-1
 128 -249 l 1,34,-1
 78 -249 l 1,35,-1
 78 700 l 1,36,-1
 79 700 l 1,37,-1
 128 700 l 1,38,-1
 129 700 l 1,39,-1
 129 482 l 1,16,17
EndSplineSet
EndChar

StartChar: germandbls
Encoding: 223 223 137
Width: 506
Flags: W
LayerCount: 2
Fore
SplineSet
460 186 m 1,0,1
 460 163 460 163 453 131 c 128,-1,2
 446 99 446 99 426 70 c 128,-1,3
 406 41 406 41 370 20.5 c 128,-1,4
 334 0 334 0 277 0 c 2,5,-1
 225 0 l 1,6,-1
 225 54 l 1,7,-1
 275 54 l 2,8,9
 293 54 293 54 315.5 58.5 c 128,-1,10
 338 63 338 63 358 77.5 c 128,-1,11
 378 92 378 92 391.5 118 c 128,-1,12
 405 144 405 144 405 186 c 2,13,-1
 405 229 l 2,14,15
 405 272 405 272 392.5 298 c 128,-1,16
 380 324 380 324 362 338 c 128,-1,17
 344 352 344 352 323 356.5 c 128,-1,18
 302 361 302 361 284 361 c 2,19,-1
 261 361 l 1,20,-1
 261 415 l 1,21,-1
 283 415 l 1,22,-1
 287 415 l 2,23,24
 333 415 333 415 356 444.5 c 128,-1,25
 379 474 379 474 379 525 c 0,26,27
 379 568 379 568 365.5 594 c 128,-1,28
 352 620 352 620 332.5 634 c 128,-1,29
 313 648 313 648 290.5 652.5 c 128,-1,30
 268 657 268 657 251 657 c 0,31,32
 233 657 233 657 210.5 652.5 c 128,-1,33
 188 648 188 648 167.5 634 c 128,-1,34
 147 620 147 620 133 594 c 128,-1,35
 119 568 119 568 119 525 c 2,36,-1
 119 0 l 1,37,-1
 64 0 l 1,38,-1
 64 528 l 2,39,40
 64 550 64 550 71.5 581.5 c 128,-1,41
 79 613 79 613 99 641.5 c 128,-1,42
 119 670 119 670 155.5 690.5 c 128,-1,43
 192 711 192 711 251 711 c 0,44,45
 308 711 308 711 344 690.5 c 128,-1,46
 380 670 380 670 400 641 c 128,-1,47
 420 612 420 612 427 580 c 128,-1,48
 434 548 434 548 434 526 c 0,49,50
 434 484 434 484 415.5 445 c 128,-1,51
 397 406 397 406 357 392 c 1,52,53
 391 380 391 380 411 359.5 c 128,-1,54
 431 339 431 339 442 316 c 128,-1,55
 453 293 453 293 456.5 270.5 c 128,-1,56
 460 248 460 248 460 232 c 2,57,-1
 460 186 l 1,58,-1
 460 186 l 1,0,1
EndSplineSet
EndChar

StartChar: ae
Encoding: 230 230 143
Width: 645
Flags: W
LayerCount: 2
Fore
SplineSet
300 24 m 0,0,1
 268 4 268 4 234 -3 c 128,-1,2
 200 -10 200 -10 180 -10 c 0,3,4
 152 -10 152 -10 127.5 1.5 c 128,-1,5
 103 13 103 13 85 32.5 c 128,-1,6
 67 52 67 52 57 78 c 128,-1,7
 47 104 47 104 47 133 c 2,8,-1
 47 189 l 2,9,10
 47 218 47 218 57 243.5 c 128,-1,11
 67 269 67 269 85 288 c 128,-1,12
 103 307 103 307 127.5 318 c 128,-1,13
 152 329 152 329 180 329 c 0,14,15
 187 329 187 329 200.5 328 c 128,-1,16
 214 327 214 327 230.5 324 c 128,-1,17
 247 321 247 321 264 316 c 128,-1,18
 281 311 281 311 293 302 c 1,19,-1
 293 349 l 1,20,21
 290 370 290 370 281 390.5 c 128,-1,22
 272 411 272 411 258.5 426.5 c 128,-1,23
 245 442 245 442 227.5 451.5 c 128,-1,24
 210 461 210 461 190 461 c 0,25,26
 182 461 182 461 161.5 456 c 128,-1,27
 141 451 141 451 119 446 c 0,28,29
 93 440 93 440 63 432 c 1,30,-1
 49 479 l 1,31,32
 82 487 82 487 110 494 c 0,33,34
 134 500 134 500 157 505 c 128,-1,35
 180 510 180 510 190 510 c 0,36,37
 227 510 227 510 258.5 490.5 c 128,-1,38
 290 471 290 471 311 440 c 1,39,40
 328 472 328 472 359.5 491 c 128,-1,41
 391 510 391 510 429 510 c 2,42,-1
 463 510 l 2,43,44
 491 510 491 510 516 499 c 128,-1,45
 541 488 541 488 560 469 c 128,-1,46
 579 450 579 450 589.5 424 c 128,-1,47
 600 398 600 398 600 368 c 2,48,-1
 600 335 l 2,49,50
 600 293 600 293 585 264.5 c 128,-1,51
 570 236 570 236 544 218 c 128,-1,52
 518 200 518 200 483.5 192.5 c 128,-1,53
 449 185 449 185 410 185 c 0,54,55
 394 185 394 185 378 186 c 128,-1,56
 362 187 362 187 345 189 c 1,57,-1
 345 129 l 1,58,59
 352 89 352 89 382.5 65.5 c 128,-1,60
 413 42 413 42 452 42 c 0,61,62
 456 42 456 42 477.5 46.5 c 128,-1,63
 499 51 499 51 523 56 c 0,64,65
 551 62 551 62 585 70 c 1,66,-1
 597 17 l 1,67,68
 560 9 560 9 530 4 c 0,69,70
 504 -1 504 -1 480.5 -5 c 128,-1,71
 457 -9 457 -9 452 -9 c 0,72,73
 434 -9 434 -9 415 -4.5 c 128,-1,74
 396 0 396 0 379.5 7.5 c 128,-1,75
 363 15 363 15 349.5 24.5 c 128,-1,76
 336 34 336 34 329 44 c 1,77,78
 325 42 325 42 321 38 c 0,79,80
 317 35 317 35 312 31.5 c 128,-1,81
 307 28 307 28 300 24 c 0,0,1
180 279 m 0,82,83
 163 279 163 279 147.5 272 c 128,-1,84
 132 265 132 265 121 253 c 128,-1,85
 110 241 110 241 103.5 225.5 c 128,-1,86
 97 210 97 210 97 192 c 2,87,-1
 97 129 l 2,88,89
 97 111 97 111 103.5 95.5 c 128,-1,90
 110 80 110 80 121 68.5 c 128,-1,91
 132 57 132 57 147 50 c 128,-1,92
 162 43 162 43 179 43 c 0,93,94
 194 43 194 43 213.5 48.5 c 128,-1,95
 233 54 233 54 251 61 c 0,96,97
 272 69 272 69 294 79 c 1,98,-1
 294 127 l 1,99,100
 293 132 293 132 293 137 c 128,-1,101
 293 142 293 142 293 147 c 2,102,-1
 293 244 l 1,103,104
 290 246 290 246 280.5 251.5 c 128,-1,105
 271 257 271 257 256 263 c 128,-1,106
 241 269 241 269 221.5 274 c 128,-1,107
 202 279 202 279 180 279 c 0,82,83
463 242 m 1,108,109
 481 241 481 241 496.5 248 c 128,-1,110
 512 255 512 255 523.5 267.5 c 128,-1,111
 535 280 535 280 541.5 296.5 c 128,-1,112
 548 313 548 313 548 331 c 2,113,-1
 548 373 l 2,114,115
 548 397 548 397 539 413.5 c 128,-1,116
 530 430 530 430 515.5 440 c 128,-1,117
 501 450 501 450 481.5 454.5 c 128,-1,118
 462 459 462 459 441 459 c 0,119,120
 422 459 422 459 404.5 453 c 128,-1,121
 387 447 387 447 374 436 c 128,-1,122
 361 425 361 425 353 409 c 128,-1,123
 345 393 345 393 345 373 c 2,124,-1
 345 242 l 1,125,-1
 463 242 l 1,108,109
EndSplineSet
EndChar

StartChar: igrave
Encoding: 236 236 149
Width: 181
Flags: W
LayerCount: 2
Fore
SplineSet
64 500 m 1,0,-1
 117 500 l 1,1,-1
 117 0 l 1,2,-1
 64 0 l 1,3,-1
 64 500 l 1,0,-1
61 589 m 1,4,-1
 -45 736 l 1,5,-1
 16 736 l 1,6,-1
 113 589 l 1,7,-1
 61 589 l 1,4,-1
EndSplineSet
EndChar

StartChar: iacute
Encoding: 237 237 150
Width: 181
Flags: W
LayerCount: 2
Fore
SplineSet
64 500 m 1,0,-1
 117 500 l 1,1,-1
 117 0 l 1,2,-1
 64 0 l 1,3,-1
 64 500 l 1,0,-1
117 590 m 1,4,-1
 65 590 l 1,5,-1
 162 737 l 1,6,-1
 223 737 l 1,7,-1
 117 590 l 1,4,-1
EndSplineSet
EndChar

StartChar: idieresis
Encoding: 239 239 152
Width: 181
Flags: W
LayerCount: 2
Fore
SplineSet
64 500 m 1,0,-1
 117 500 l 1,1,-1
 117 0 l 1,2,-1
 64 0 l 1,3,-1
 64 500 l 1,0,-1
161 600 m 1,4,-1
 161 677 l 1,5,-1
 219 677 l 1,6,-1
 219 600 l 1,7,-1
 161 600 l 1,4,-1
-37 600 m 1,8,-1
 -37 677 l 1,9,-1
 21 677 l 1,10,-1
 21 600 l 1,11,-1
 -37 600 l 1,8,-1
EndSplineSet
EndChar

StartChar: thorn
Encoding: 254 254 166
Width: 419
Flags: W
LayerCount: 2
Fore
SplineSet
116 70 m 1,0,1
 145 55 145 55 172 48 c 128,-1,2
 199 41 199 41 231 41 c 0,3,4
 248 41 248 41 263 48 c 128,-1,5
 278 55 278 55 289 67 c 128,-1,6
 300 79 300 79 306.5 94.5 c 128,-1,7
 313 110 313 110 313 128 c 2,8,-1
 313 371 l 2,9,10
 313 407 313 407 289 432.5 c 128,-1,11
 265 458 265 458 230 458 c 0,12,13
 206 458 206 458 172.5 449.5 c 128,-1,14
 139 441 139 441 116 423 c 1,15,-1
 116 70 l 1,0,1
115 481 m 1,16,17
 155 502 155 502 184 505.5 c 128,-1,18
 213 509 213 509 230 509 c 0,19,20
 258 509 258 509 282 498 c 128,-1,21
 306 487 306 487 324 467.5 c 128,-1,22
 342 448 342 448 352.5 422.5 c 128,-1,23
 363 397 363 397 363 368 c 2,24,-1
 363 132 l 2,25,26
 363 103 363 103 352.5 77.5 c 128,-1,27
 342 52 342 52 324 33 c 128,-1,28
 306 14 306 14 282 3 c 128,-1,29
 258 -8 258 -8 230 -8 c 0,30,31
 209 -8 209 -8 177.5 -3 c 128,-1,32
 146 2 146 2 114 18 c 1,33,-1
 114 -250 l 1,34,-1
 64 -250 l 1,35,-1
 64 699 l 1,36,-1
 65 699 l 1,37,-1
 114 699 l 1,38,-1
 115 699 l 1,39,-1
 115 481 l 1,16,17
EndSplineSet
EndChar

StartChar: Lslash
Encoding: 321 321 168
Width: 384
Flags: W
LayerCount: 2
Fore
SplineSet
360 57 m 1,0,-1
 360 1 l 1,1,-1
 81 1 l 1,2,-1
 81 210 l 1,3,-1
 12 210 l 1,4,-1
 12 264 l 1,5,-1
 81 264 l 1,6,-1
 81 700 l 1,7,-1
 138 700 l 1,8,-1
 138 264 l 1,9,-1
 357 264 l 1,10,-1
 357 210 l 1,11,-1
 138 210 l 1,12,-1
 138 57 l 1,13,-1
 360 57 l 1,14,-1
 360 57 l 1,0,-1
EndSplineSet
EndChar

StartChar: lslash
Encoding: 322 322 169
Width: 375
Flags: W
LayerCount: 2
Fore
SplineSet
179 209 m 1,0,-1
 179 127 l 2,1,2
 179 86 179 86 199.5 70.5 c 128,-1,3
 220 55 220 55 249 55 c 2,4,-1
 262 55 l 1,5,-1
 262 1 l 1,6,-1
 244 1 l 2,7,8
 219 1 219 1 197.5 8.5 c 128,-1,9
 176 16 176 16 160.5 31.5 c 128,-1,10
 145 47 145 47 136 72 c 128,-1,11
 127 97 127 97 127 132 c 2,12,-1
 127 209 l 1,13,-1
 23 209 l 1,14,-1
 23 263 l 1,15,-1
 127 263 l 1,16,-1
 127 700 l 1,17,-1
 179 700 l 1,18,-1
 179 263 l 1,19,-1
 366 263 l 1,20,-1
 366 209 l 1,21,-1
 179 209 l 1,0,-1
EndSplineSet
EndChar

StartChar: OE
Encoding: 338 338 170
Width: 723
Flags: W
LayerCount: 2
Fore
SplineSet
396 551 m 1,0,1
 392 585 392 585 376 606 c 128,-1,2
 360 627 360 627 339 638.5 c 128,-1,3
 318 650 318 650 296.5 654 c 128,-1,4
 275 658 275 658 260 658 c 0,5,6
 244 658 244 658 220.5 653 c 128,-1,7
 197 648 197 648 175 634.5 c 128,-1,8
 153 621 153 621 137.5 596.5 c 128,-1,9
 122 572 122 572 122 532 c 2,10,-1
 122 181 l 2,11,12
 122 141 122 141 137.5 117.5 c 128,-1,13
 153 94 153 94 175 81.5 c 128,-1,14
 197 69 197 69 220.5 65.5 c 128,-1,15
 244 62 244 62 260 62 c 0,16,17
 275 62 275 62 296.5 65.5 c 128,-1,18
 318 69 318 69 339 79.5 c 128,-1,19
 360 90 360 90 376 110 c 128,-1,20
 392 130 392 130 396 164 c 1,21,-1
 396 551 l 1,0,1
396 50 m 1,22,23
 373 29 373 29 340 15 c 128,-1,24
 307 1 307 1 259 1 c 0,25,26
 203 1 203 1 166 21 c 128,-1,27
 129 41 129 41 107.5 69.5 c 128,-1,28
 86 98 86 98 77 129 c 128,-1,29
 68 160 68 160 68 182 c 2,30,-1
 68 532 l 2,31,32
 68 554 68 554 76.5 586 c 128,-1,33
 85 618 85 618 107 647.5 c 128,-1,34
 129 677 129 677 166 698 c 128,-1,35
 203 719 203 719 260 719 c 0,36,37
 307 719 307 719 340 704 c 128,-1,38
 373 689 373 689 396 666 c 1,39,-1
 396 710 l 1,40,-1
 678 710 l 1,41,-1
 678 653 l 1,42,-1
 453 653 l 1,43,-1
 453 391 l 1,44,-1
 629 391 l 1,45,-1
 629 333 l 1,46,-1
 453 333 l 1,47,-1
 453 69 l 1,48,-1
 680 69 l 1,49,-1
 680 11 l 1,50,-1
 396 11 l 1,51,-1
 396 50 l 1,22,23
EndSplineSet
EndChar

StartChar: oe
Encoding: 339 339 171
Width: 668
Flags: W
LayerCount: 2
Fore
SplineSet
316 142 m 2,0,-1
 316 359 l 2,1,2
 316 392 316 392 304 411.5 c 128,-1,3
 292 431 292 431 275.5 441.5 c 128,-1,4
 259 452 259 452 240.5 455.5 c 128,-1,5
 222 459 222 459 209 459 c 256,6,7
 196 459 196 459 177.5 455.5 c 128,-1,8
 159 452 159 452 142 441.5 c 128,-1,9
 125 431 125 431 113 411.5 c 128,-1,10
 101 392 101 392 101 359 c 2,11,-1
 101 142 l 2,12,13
 101 109 101 109 113 89.5 c 128,-1,14
 125 70 125 70 142 59 c 128,-1,15
 159 48 159 48 177.5 44.5 c 128,-1,16
 196 41 196 41 209 41 c 256,17,18
 222 41 222 41 240.5 44.5 c 128,-1,19
 259 48 259 48 275.5 59 c 128,-1,20
 292 70 292 70 304 89.5 c 128,-1,21
 316 109 316 109 316 142 c 2,0,-1
362 135 m 2,22,23
 362 89 362 89 345 61 c 128,-1,24
 328 33 328 33 304 17.5 c 128,-1,25
 280 2 280 2 254 -3 c 128,-1,26
 228 -8 228 -8 209 -8 c 256,27,28
 190 -8 190 -8 164 -3 c 128,-1,29
 138 2 138 2 114 17.5 c 128,-1,30
 90 33 90 33 73 61 c 128,-1,31
 56 89 56 89 56 135 c 2,32,-1
 56 366 l 2,33,34
 56 412 56 412 73 440 c 128,-1,35
 90 468 90 468 114 483 c 128,-1,36
 138 498 138 498 164 503 c 128,-1,37
 190 508 190 508 209 508 c 256,38,39
 228 508 228 508 254 503 c 128,-1,40
 280 498 280 498 304 483 c 128,-1,41
 328 468 328 468 345 440 c 128,-1,42
 362 412 362 412 362 366 c 2,43,-1
 362 135 l 2,22,23
486 241 m 1,44,-1
 488 241 l 2,45,46
 506 241 506 241 521 248.5 c 128,-1,47
 536 256 536 256 547 268.5 c 128,-1,48
 558 281 558 281 564.5 297 c 128,-1,49
 571 313 571 313 571 331 c 2,50,-1
 571 373 l 2,51,52
 571 397 571 397 562 413.5 c 128,-1,53
 553 430 553 430 538.5 440 c 128,-1,54
 524 450 524 450 504.5 454.5 c 128,-1,55
 485 459 485 459 464 459 c 0,56,57
 445 459 445 459 427.5 453 c 128,-1,58
 410 447 410 447 397 436 c 128,-1,59
 384 425 384 425 376 409 c 128,-1,60
 368 393 368 393 368 373 c 2,61,-1
 368 242 l 1,62,-1
 486 241 l 1,44,-1
316 368 m 2,63,64
 316 398 316 398 326.5 424 c 128,-1,65
 337 450 337 450 355.5 469 c 128,-1,66
 374 488 374 488 398.5 499 c 128,-1,67
 423 510 423 510 452 510 c 2,68,-1
 486 510 l 2,69,70
 514 510 514 510 539 499 c 128,-1,71
 564 488 564 488 583 469 c 128,-1,72
 602 450 602 450 612.5 424 c 128,-1,73
 623 398 623 398 623 368 c 2,74,-1
 623 335 l 2,75,76
 623 293 623 293 608 264.5 c 128,-1,77
 593 236 593 236 567 218 c 128,-1,78
 541 200 541 200 506.5 192.5 c 128,-1,79
 472 185 472 185 433 185 c 0,80,81
 417 185 417 185 401 186 c 128,-1,82
 385 187 385 187 368 189 c 1,83,-1
 368 129 l 1,84,85
 375 89 375 89 405.5 65.5 c 128,-1,86
 436 42 436 42 475 42 c 0,87,88
 485 42 485 42 507 46 c 128,-1,89
 529 50 529 50 552 55 c 0,90,91
 578 61 578 61 608 69 c 1,92,-1
 620 17 l 1,93,94
 588 9 588 9 560 4 c 0,95,96
 536 -1 536 -1 512 -5 c 128,-1,97
 488 -9 488 -9 475 -9 c 0,98,99
 443 -9 443 -9 414 2.5 c 128,-1,100
 385 14 385 14 363 35 c 128,-1,101
 341 56 341 56 328.5 84.5 c 128,-1,102
 316 113 316 113 316 147 c 2,103,-1
 316 368 l 2,63,64
EndSplineSet
EndChar

StartChar: circumflex
Encoding: 710 710 177
Width: 396
Flags: W
LayerCount: 2
Fore
SplineSet
276 626 m 1,0,-1
 198 707 l 1,1,-1
 120 626 l 1,2,-1
 70 626 l 1,3,-1
 170 751 l 1,4,-1
 225 751 l 1,5,-1
 325 626 l 1,6,-1
 276 626 l 1,0,-1
EndSplineSet
EndChar

StartChar: caron
Encoding: 711 711 178
Width: 401
Flags: W
LayerCount: 2
Fore
SplineSet
120 750 m 1,0,-1
 198 669 l 1,1,-1
 276 750 l 1,2,-1
 326 750 l 1,3,-1
 226 625 l 1,4,-1
 171 625 l 1,5,-1
 71 750 l 1,6,-1
 120 750 l 1,0,-1
EndSplineSet
EndChar

StartChar: tilde
Encoding: 732 732 180
Width: 497
Flags: W
LayerCount: 2
Fore
SplineSet
374 655 m 1,0,-1
 397 605 l 1,1,-1
 125 605 l 1,2,-1
 100 655 l 1,3,-1
 374 655 l 1,0,-1
EndSplineSet
EndChar

StartChar: endash
Encoding: 8211 8211 181
Width: 463
Flags: W
LayerCount: 2
Fore
SplineSet
59 209 m 1,0,-1
 59 263 l 1,1,-1
 402 263 l 1,2,-1
 402 209 l 1,3,-1
 59 209 l 1,0,-1
EndSplineSet
EndChar

StartChar: emdash
Encoding: 8212 8212 182
Width: 734
Flags: W
LayerCount: 2
Fore
SplineSet
59 209 m 1,0,-1
 59 263 l 1,1,-1
 673 263 l 1,2,-1
 673 209 l 1,3,-1
 59 209 l 1,0,-1
EndSplineSet
EndChar

StartChar: quotesinglbase
Encoding: 8218 8218 183
Width: 187
Flags: W
LayerCount: 2
Fore
SplineSet
142 449 m 1,0,1
 142 393 142 393 119 359 c 128,-1,2
 96 325 96 325 58 309 c 1,3,-1
 41 369 l 1,4,5
 58 377 58 377 71 395.5 c 128,-1,6
 84 414 84 414 84 450 c 2,7,-1
 84 501 l 1,8,-1
 142 501 l 1,9,-1
 142 449 l 1,10,-1
 142 449 l 1,0,1
EndSplineSet
EndChar

StartChar: quotedblleft
Encoding: 8220 8220 184
Width: 316
Flags: W
LayerCount: 2
Fore
SplineSet
49 562 m 2,0,1
 49 618 49 618 72 652 c 128,-1,2
 95 686 95 686 133 702 c 1,3,-1
 150 642 l 1,4,5
 133 634 133 634 120 615.5 c 128,-1,6
 107 597 107 597 107 561 c 2,7,-1
 107 510 l 1,8,-1
 49 510 l 1,9,-1
 49 562 l 2,0,1
180 562 m 2,10,11
 180 618 180 618 203 652 c 128,-1,12
 226 686 226 686 264 702 c 1,13,-1
 281 642 l 1,14,15
 264 634 264 634 251 615.5 c 128,-1,16
 238 597 238 597 238 561 c 2,17,-1
 238 510 l 1,18,-1
 180 510 l 1,19,-1
 180 562 l 2,10,11
EndSplineSet
EndChar

StartChar: quotedblright
Encoding: 8221 8221 185
Width: 312
Flags: W
LayerCount: 2
Fore
SplineSet
269 648 m 2,0,1
 269 592 269 592 246 558 c 128,-1,2
 223 524 223 524 185 508 c 1,3,-1
 168 568 l 1,4,5
 185 576 185 576 198 594.5 c 128,-1,6
 211 613 211 613 211 649 c 2,7,-1
 211 700 l 1,8,-1
 269 700 l 1,9,-1
 269 648 l 2,0,1
138 648 m 2,10,11
 138 592 138 592 115 558 c 128,-1,12
 92 524 92 524 54 508 c 1,13,-1
 37 568 l 1,14,15
 54 576 54 576 67 594.5 c 128,-1,16
 80 613 80 613 80 649 c 2,17,-1
 80 700 l 1,18,-1
 138 700 l 1,19,-1
 138 648 l 2,10,11
EndSplineSet
EndChar

StartChar: bullet
Encoding: 8226 8226 186
Width: 296
Flags: W
LayerCount: 2
Fore
SplineSet
252 247 m 256,0,1
 252 226 252 226 244 207 c 128,-1,2
 236 188 236 188 221.5 173.5 c 128,-1,3
 207 159 207 159 188 151 c 128,-1,4
 169 143 169 143 148 143 c 256,5,6
 127 143 127 143 108 151 c 128,-1,7
 89 159 89 159 75 173.5 c 128,-1,8
 61 188 61 188 53 207 c 128,-1,9
 45 226 45 226 45 247 c 256,10,11
 45 268 45 268 53 287 c 128,-1,12
 61 306 61 306 75 320.5 c 128,-1,13
 89 335 89 335 108 343 c 128,-1,14
 127 351 127 351 148 351 c 256,15,16
 169 351 169 351 188 343 c 128,-1,17
 207 335 207 335 221.5 320.5 c 128,-1,18
 236 306 236 306 244 287 c 128,-1,19
 252 268 252 268 252 247 c 256,0,1
EndSplineSet
EndChar

StartChar: ellipsis
Encoding: 8230 8230 187
Width: 503
Flags: W
LayerCount: 2
Fore
SplineSet
56 5 m 1,0,-1
 56 93 l 1,1,-1
 125 93 l 1,2,-1
 125 5 l 1,3,-1
 56 5 l 1,0,-1
217 5 m 1,4,-1
 217 93 l 1,5,-1
 286 93 l 1,6,-1
 286 5 l 1,7,-1
 217 5 l 1,4,-1
378 5 m 1,8,-1
 378 93 l 1,9,-1
 447 93 l 1,10,-1
 447 5 l 1,11,-1
 378 5 l 1,8,-1
EndSplineSet
EndChar

StartChar: fraction
Encoding: 8260 8260 188
Width: 218
Flags: W
LayerCount: 2
Fore
SplineSet
130 699 m 1,0,-1
 190 699 l 1,1,-1
 89 1 l 1,2,-1
 29 1 l 1,3,-1
 130 699 l 1,0,-1
EndSplineSet
EndChar

StartChar: Euro
Encoding: 8364 8364 189
Width: 465
Flags: W
LayerCount: 2
Fore
SplineSet
412 163 m 1,0,-1
 412 137 l 2,1,2
 412 108 412 108 401.5 83 c 128,-1,3
 391 58 391 58 373 39.5 c 128,-1,4
 355 21 355 21 331 10.5 c 128,-1,5
 307 0 307 0 279 0 c 2,6,-1
 246 0 l 2,7,8
 218 0 218 0 194 10.5 c 128,-1,9
 170 21 170 21 152 39.5 c 128,-1,10
 134 58 134 58 124 83 c 128,-1,11
 114 108 114 108 114 137 c 2,12,-1
 114 250 l 1,13,-1
 42 250 l 1,14,-1
 42 294 l 1,15,-1
 114 294 l 1,16,-1
 114 370 l 1,17,-1
 42 370 l 1,18,-1
 42 414 l 1,19,-1
 114 414 l 1,20,-1
 114 527 l 2,21,22
 114 556 114 556 124.5 581 c 128,-1,23
 135 606 135 606 153 624.5 c 128,-1,24
 171 643 171 643 195 653.5 c 128,-1,25
 219 664 219 664 247 664 c 2,26,-1
 280 664 l 2,27,28
 307 664 307 664 331 653.5 c 128,-1,29
 355 643 355 643 373 624.5 c 128,-1,30
 391 606 391 606 401.5 581 c 128,-1,31
 412 556 412 556 412 527 c 2,32,-1
 412 504 l 1,33,-1
 361 504 l 1,34,-1
 361 527 l 2,35,36
 361 567 361 567 333 588.5 c 128,-1,37
 305 610 305 610 268 610 c 0,38,39
 247 610 247 610 228.5 606 c 128,-1,40
 210 602 210 602 196 592 c 128,-1,41
 182 582 182 582 173.5 566.5 c 128,-1,42
 165 551 165 551 165 527 c 2,43,-1
 165 414 l 1,44,-1
 318 414 l 1,45,-1
 318 370 l 1,46,-1
 165 370 l 1,47,-1
 165 294 l 1,48,-1
 318 294 l 1,49,-1
 318 250 l 1,50,-1
 165 250 l 1,51,-1
 165 140 l 2,52,53
 165 104 165 104 188.5 78.5 c 128,-1,54
 212 53 212 53 247 53 c 2,55,-1
 279 53 l 2,56,57
 313 53 313 53 337 78.5 c 128,-1,58
 361 104 361 104 361 140 c 2,59,-1
 361 163 l 1,60,-1
 412 163 l 1,0,-1
EndSplineSet
EndChar

StartChar: trademark
Encoding: 8482 8482 190
Width: 556
Flags: W
LayerCount: 2
Fore
SplineSet
385 505 m 1,0,-1
 444 700 l 1,1,-1
 483 700 l 1,2,-1
 483 387 l 1,3,-1
 459 387 l 1,4,-1
 459 647 l 1,5,-1
 453 647 l 1,6,-1
 401 479 l 1,7,-1
 362 479 l 1,8,-1
 310 647 l 1,9,-1
 304 647 l 1,10,-1
 304 387 l 1,11,-1
 281 387 l 1,12,-1
 281 700 l 1,13,-1
 320 700 l 1,14,-1
 378 505 l 1,15,-1
 385 505 l 1,0,-1
227 700 m 1,16,-1
 227 676 l 1,17,-1
 155 676 l 1,18,-1
 155 387 l 1,19,-1
 131 387 l 1,20,-1
 131 676 l 1,21,-1
 57 676 l 1,22,-1
 57 700 l 1,23,-1
 227 700 l 1,16,-1
EndSplineSet
EndChar

StartChar: minus
Encoding: 8722 8722 191
Width: 481
Flags: W
LayerCount: 2
Fore
SplineSet
69 251 m 1,0,-1
 69 315 l 1,1,-1
 412 315 l 1,2,-1
 412 251 l 1,3,-1
 69 251 l 1,0,-1
EndSplineSet
EndChar

StartChar: fi
Encoding: 64257 64257 192
Width: 463
Flags: W
LayerCount: 2
Fore
SplineSet
346 700 m 1,0,-1
 399 700 l 1,1,-1
 399 622 l 1,2,-1
 346 622 l 1,3,-1
 346 700 l 1,0,-1
165 500 m 1,4,-1
 399 500 l 1,5,-1
 399 0 l 1,6,-1
 346 0 l 1,7,-1
 346 451 l 1,8,-1
 166 451 l 1,9,-1
 166 0 l 1,10,-1
 113 0 l 1,11,-1
 113 451 l 1,12,-1
 25 451 l 1,13,-1
 25 500 l 1,14,-1
 114 500 l 1,15,-1
 114 578 l 2,16,17
 114 613 114 613 123 638 c 128,-1,18
 132 663 132 663 147.5 678.5 c 128,-1,19
 163 694 163 694 184.5 701.5 c 128,-1,20
 206 709 206 709 231 709 c 2,21,-1
 249 709 l 1,22,-1
 249 655 l 1,23,-1
 236 655 l 2,24,25
 208 655 208 655 186.5 640 c 128,-1,26
 165 625 165 625 165 585 c 2,27,-1
 165 500 l 1,4,-1
EndSplineSet
EndChar

StartChar: fl
Encoding: 64258 64258 193
Width: 488
Flags: W
LayerCount: 2
Fore
SplineSet
346 132 m 2,0,-1
 346 451 l 1,1,-1
 166 451 l 1,2,-1
 166 0 l 1,3,-1
 113 0 l 1,4,-1
 113 451 l 1,5,-1
 25 451 l 1,6,-1
 25 500 l 1,7,-1
 114 500 l 1,8,-1
 114 578 l 2,9,10
 114 613 114 613 123 638 c 128,-1,11
 132 663 132 663 147.5 678.5 c 128,-1,12
 163 694 163 694 184.5 701.5 c 128,-1,13
 206 709 206 709 231 709 c 2,14,-1
 249 709 l 1,15,-1
 249 655 l 1,16,-1
 236 655 l 2,17,18
 208 655 208 655 186.5 640 c 128,-1,19
 165 625 165 625 165 585 c 2,20,-1
 165 500 l 1,21,-1
 346 500 l 1,22,-1
 346 700 l 1,23,-1
 398 700 l 1,24,-1
 398 127 l 2,25,26
 398 86 398 86 418.5 70.5 c 128,-1,27
 439 55 439 55 468 55 c 2,28,-1
 481 55 l 1,29,-1
 481 1 l 1,30,-1
 463 1 l 2,31,32
 438 1 438 1 416.5 8.5 c 128,-1,33
 395 16 395 16 379.5 31.5 c 128,-1,34
 364 47 364 47 355 72 c 128,-1,35
 346 97 346 97 346 132 c 2,0,-1
EndSplineSet
EndChar

